<?xml version="1.0" encoding="utf-8"?>
<!-- Generator: Adobe Illustrator 27.5.0, SVG Export Plug-In . SVG Version: 6.00 Build 0)  -->
<svg version="1.1" id="圖層_1" xmlns="http://www.w3.org/2000/svg" xmlns:xlink="http://www.w3.org/1999/xlink" x="0px" y="0px"
	 viewBox="0 0 139.6 130.8" style="enable-background:new 0 0 139.6 130.8;" xml:space="preserve">
<style type="text/css">
	.st0{fill:#0D0D0D;}
</style>
<g>
	<g>
		<path class="st0" d="M55.4,32.5c0.2-0.2,0.5-0.5,0.7-0.5c1.1-1,2.3-1.8,3.5-2.6c0.3-0.2,0.7-0.5,1.1-0.5v-4.1H70
			c5.5,0,10.1,4.5,10.1,10.1S75.6,45,70,45c-2,0-3.7,1.7-3.7,3.7c0,2,1.5,3.5,3.5,3.7H70c2,0,4.2-0.5,6-1.1c0.8-0.3,1.7-0.8,2.6-1.2
			c1-0.5,2-1.3,2.8-2c0.7-0.5,1.3-1.2,1.8-2c2.6-3.2,4-7,4-11.1c0-9.5-7.7-17.3-17.3-17.3H54.1V34C54.6,33.3,55,32.9,55.4,32.5z"/>
		<path class="st0" d="M69.9,66.1h16.3V48.6c0,0,0,0.1-0.1,0.1c-0.2,0.5-0.7,0.8-1.1,1.3c-0.3,0.3-0.8,0.8-1.1,1.1
			c-1.1,1-2.3,1.8-3.5,2.5c-0.5,0.2-0.8,0.5-1.2,0.7v3.9h-9.4c-5.3,0-9.6-4.3-9.6-9.6c0-5.3,4.3-9.6,9.6-9.6c2.2,0,4-1.8,4-4
			c0-2.2-1.7-3.9-3.8-4c0,0-0.1,0-0.2,0c-2.5,0-5,0.5-7.1,1.5l-0.8,0.5c-0.1,0-0.2,0-0.5,0.1c-0.1,0.1-0.2,0.1-0.3,0.2
			c-0.8,0.5-1.5,1-2.2,1.5c-0.1,0.1-0.2,0.2-0.3,0.3s-0.2,0.2-0.3,0.3l-0.1,0.1l-0.1,0.1l-0.1,0.1l-0.1,0.1
			c-0.1,0.1-0.1,0.1-0.2,0.2c-0.2,0.2-0.3,0.3-0.5,0.5c-0.1,0.1-0.1,0.2-0.2,0.2L56.5,37c-2.6,3.2-4,7.1-4,11.2
			C52.3,58.2,60.2,66.1,69.9,66.1z"/>
	</g>
	<g>
		<path class="st0" d="M27.3,87.7c-0.2-0.1-0.3-0.3-0.3-0.5c-0.1-0.3,0-0.5,0.3-0.8l1.9-3.1l2,3.1c0.2,0.3,0.3,0.6,0.3,0.8
			c0,0.3-0.1,0.4-0.3,0.5v0.2h4.9v-0.2c-0.2-0.1-0.3-0.2-0.4-0.3c-0.2-0.2-0.3-0.3-0.4-0.6l-3.9-6l3.4-5.3c0.2-0.3,0.3-0.4,0.4-0.5
			c0.2-0.2,0.3-0.3,0.4-0.3v-0.2H31v0.2c0.1,0.1,0.2,0.2,0.3,0.4c0.1,0.2,0,0.4-0.2,0.8l-1.7,2.8l-1.8-2.9c-0.2-0.3-0.3-0.5-0.2-0.7
			c0.1-0.2,0.2-0.3,0.3-0.4v-0.2h-4.8v0.2c0.1,0.1,0.3,0.2,0.4,0.3c0.2,0.2,0.3,0.3,0.5,0.5l3.5,5.4l-3.6,5.8
			c-0.2,0.3-0.3,0.5-0.5,0.7c-0.2,0.2-0.3,0.3-0.4,0.3v0.2h4.7L27.3,87.7L27.3,87.7z"/>
		<path class="st0" d="M36.7,74.5c0.2,0.2,0.3,0.4,0.4,0.8c0.1,0.3,0.2,0.8,0.2,1.4v8.7c0,0.6-0.1,1.1-0.2,1.4
			c-0.1,0.3-0.3,0.6-0.4,0.8v0.2h4.3v-0.2c-0.2-0.2-0.3-0.4-0.4-0.8c-0.1-0.3-0.2-0.8-0.2-1.4v-8.7c0-0.6,0.1-1.1,0.2-1.4
			c0.1-0.3,0.3-0.6,0.4-0.8v-0.2h-4.3V74.5z"/>
		<path class="st0" d="M46,87.7c-0.2-0.1-0.3-0.3-0.3-0.5c0-0.3,0-0.5,0.3-0.9L46,86h5.8l0.1,0.3c0.2,0.3,0.3,0.7,0.3,0.9
			c0,0.3-0.2,0.4-0.3,0.6v0.2h4.6v-0.2c-0.2-0.1-0.3-0.2-0.4-0.4c-0.2-0.2-0.3-0.5-0.5-0.8L49,74.2h-0.3l-6.3,12.1
			c-0.2,0.4-0.4,0.8-0.6,0.9c-0.2,0.3-0.3,0.4-0.5,0.5v0.2h4.5L46,87.7L46,87.7z M47.3,83.4l1.6-3.5l1.7,3.5H47.3z"/>
		<path class="st0" d="M67.9,75.3c0.1-0.3,0.3-0.6,0.4-0.8v-0.2H64v0.2c0.2,0.2,0.3,0.4,0.4,0.8c0.1,0.3,0.2,0.8,0.2,1.4v2.7
			l-3.8-3.1c-0.3-0.3-0.5-0.5-0.5-0.8c-0.1-0.3,0-0.6,0.2-0.9v-0.1h-3.7v0.2c0.3,0.2,0.4,0.4,0.5,0.8c0.1,0.4,0.2,0.9,0.2,1.5v8.6
			c0,0.6-0.1,1.1-0.2,1.4c-0.1,0.3-0.3,0.6-0.4,0.8v0.2h4.2v-0.2c-0.2-0.2-0.3-0.4-0.4-0.8c-0.1-0.3-0.2-0.8-0.2-1.4v-5.8l4.2,3.5
			v2.3c0,0.6-0.1,1.1-0.2,1.4s-0.3,0.6-0.4,0.8v0.2h4.3v-0.2c-0.2-0.2-0.3-0.4-0.4-0.8c-0.1-0.3-0.2-0.8-0.2-1.4v-8.7
			C67.8,76.1,67.8,75.6,67.9,75.3z"/>
		<rect x="69.3" y="81.7" class="st0" width="5.4" height="2.5"/>
		<path class="st0" d="M82.9,74.5c0.2,0.2,0.3,0.4,0.4,0.8c0.1,0.3,0.2,0.8,0.2,1.4v1.9h-4.2v-1.9c0-0.6,0.1-1.1,0.2-1.4
			c0.1-0.3,0.3-0.6,0.4-0.8v-0.2h-4.2v0.2c0.2,0.2,0.3,0.4,0.4,0.8c0.1,0.3,0.2,0.8,0.2,1.4v8.7c0,0.6-0.1,1.1-0.2,1.4
			c-0.1,0.3-0.3,0.6-0.4,0.8v0.2h4.2v-0.2c-0.2-0.2-0.3-0.4-0.4-0.8c-0.1-0.3-0.2-0.8-0.2-1.4v-4.1h4.2v4c0,0.6-0.1,1.1-0.2,1.4
			s-0.3,0.6-0.4,0.8v0.2h4.3v-0.2c-0.2-0.2-0.3-0.4-0.4-0.8c-0.1-0.3-0.2-0.8-0.2-1.4v-8.6c0-0.6,0.1-1.1,0.2-1.4
			c0.1-0.3,0.3-0.6,0.4-0.8v-0.2h-4.3V74.5z"/>
		<path class="st0" d="M97.9,87.8h4.6v-0.2c-0.2-0.1-0.3-0.2-0.4-0.4c-0.2-0.2-0.3-0.5-0.5-0.8l-6.4-12.3H95l-6.3,12.1
			c-0.2,0.4-0.4,0.8-0.6,0.9c-0.2,0.3-0.3,0.4-0.5,0.5v0.2h4.5v-0.2c-0.2-0.1-0.3-0.3-0.3-0.5c0-0.3,0-0.5,0.3-0.9l0.1-0.3h5.8
			l0.1,0.3c0.2,0.3,0.3,0.7,0.3,0.9C98.2,87.4,98,87.6,97.9,87.8L97.9,87.8L97.9,87.8z M96.7,83.4h-3.3L95,80L96.7,83.4z"/>
		<path class="st0" d="M103.9,86.2c0.7,0.6,1.4,1.1,2.3,1.4c0.8,0.3,1.9,0.5,2.9,0.5c1.1,0,2-0.2,2.9-0.5c0.8-0.3,1.6-0.8,2.3-1.4
			s1.2-1.4,1.5-2.2c0.3-0.8,0.5-1.8,0.5-2.9c0-1-0.2-1.9-0.5-2.9c-0.3-0.8-0.8-1.6-1.5-2.2c-0.7-0.6-1.4-1.1-2.3-1.4
			c-0.8-0.3-1.9-0.5-2.9-0.5c-1.1,0-2,0.2-2.9,0.5s-1.6,0.8-2.3,1.4c-0.7,0.6-1.1,1.4-1.5,2.2c-0.3,0.8-0.5,1.8-0.5,2.9
			c0,1,0.2,1.9,0.5,2.9C102.8,84.8,103.2,85.6,103.9,86.2z M105.6,79c0.3-0.6,0.8-1.1,1.4-1.4c0.6-0.3,1.3-0.5,2-0.5
			s1.4,0.2,2.1,0.5c0.6,0.3,1.1,0.8,1.4,1.4c0.3,0.6,0.5,1.3,0.5,2.1c0,0.8-0.2,1.5-0.5,2.1c-0.3,0.6-0.8,1.1-1.4,1.4
			c-0.6,0.3-1.3,0.5-2.1,0.5c-0.8,0-1.4-0.2-2-0.5s-1.1-0.8-1.4-1.4c-0.3-0.6-0.5-1.3-0.5-2.1C105.1,80.3,105.2,79.6,105.6,79z"/>
		<path class="st0" d="M12.8,96.7H9.8c-0.4,0.5-0.8,1.2-1.3,2.1c-0.3,0.8-0.7,1.8-0.8,2.9c-0.2,1-0.3,2-0.3,3.1c0,1,0.1,2.1,0.3,3.1
			c0.2,1,0.5,1.9,0.8,2.9c0.3,0.8,0.8,1.5,1.3,2.1h3.1c-0.8-1.4-1.4-2.6-1.7-4c-0.3-1.3-0.5-2.7-0.5-4.1c0-1.4,0.2-2.8,0.5-4.1
			C11.5,99.4,12.1,98,12.8,96.7z"/>
		<path class="st0" d="M21.1,97.8c0.2,0.2,0.3,0.4,0.4,0.8c0.1,0.3,0.2,0.8,0.2,1.4v1.9h-4.2v-1.9c0-0.6,0.1-1.1,0.2-1.4
			c0.1-0.3,0.3-0.6,0.4-0.8v-0.2h-4.2v0.2c0.2,0.2,0.3,0.4,0.4,0.8s0.2,0.8,0.2,1.4v8.7c0,0.6-0.1,1.1-0.2,1.4
			c-0.1,0.3-0.3,0.6-0.4,0.8v0.2h4.2V111c-0.2-0.2-0.3-0.4-0.4-0.8s-0.2-0.8-0.2-1.4v-4h4.2v4c0,0.6-0.1,1.1-0.2,1.4
			c-0.1,0.3-0.3,0.6-0.4,0.8v0.2h4.3V111c-0.2-0.2-0.3-0.4-0.4-0.8c-0.1-0.3-0.2-0.8-0.2-1.4v-8.7c0-0.6,0.1-1.1,0.2-1.4
			c0.1-0.3,0.3-0.6,0.4-0.8v-0.2h-4.3V97.8z"/>
		<path class="st0" d="M40.2,110.6c-0.2-0.2-0.3-0.5-0.5-0.8l-6.4-12.3h-0.3l-6.3,12.1c-0.2,0.4-0.4,0.8-0.6,0.9
			c-0.2,0.3-0.3,0.4-0.5,0.5v0.2h4.5V111c-0.2-0.1-0.3-0.3-0.3-0.5c0-0.3,0-0.5,0.3-0.9l0.1-0.3H36l0.1,0.3c0.2,0.3,0.3,0.7,0.3,0.9
			c0,0.3-0.2,0.4-0.3,0.6v0.2h4.6v-0.2C40.6,110.9,40.4,110.7,40.2,110.6z M34.9,106.7h-3.3l1.6-3.5L34.9,106.7z"/>
		<path class="st0" d="M52.3,110.4c-0.3-0.3-0.4-0.7-0.6-1.1l-1.7-4.1c0.3-0.3,0.7-0.4,0.9-0.8c0.8-0.8,1.1-1.7,1.1-2.9
			c0-1.3-0.4-2.2-1.2-2.9c-0.8-0.7-1.9-1-3.5-1h-6.2v0.2c0.2,0.2,0.3,0.4,0.5,0.8c0.1,0.3,0.2,0.8,0.2,1.4v8.7
			c0,0.6-0.1,1.1-0.2,1.4s-0.3,0.6-0.4,0.8v0.2h4.3V111c-0.2-0.2-0.3-0.4-0.4-0.8s-0.2-0.8-0.2-1.4v-1.7l2.4-0.7l1.2,3
			c0.2,0.4,0.2,0.8,0.2,1c-0.1,0.3-0.2,0.5-0.3,0.6v0.2h4.5V111C52.7,110.9,52.5,110.6,52.3,110.4z M44.9,104.3v-3.9h2
			c0.6,0,1,0.1,1.4,0.3s0.5,0.6,0.5,1c0,0.3-0.1,0.7-0.3,0.9c-0.2,0.3-0.4,0.5-0.8,0.7c-0.3,0.2-0.8,0.3-1.4,0.5L44.9,104.3z"/>
		<path class="st0" d="M64.5,110.4c-0.3-0.3-0.4-0.7-0.6-1.1l-1.7-4.1c0.3-0.3,0.7-0.4,0.9-0.8c0.8-0.8,1.1-1.7,1.1-2.9
			c0-1.3-0.4-2.2-1.2-2.9c-0.8-0.7-1.9-1-3.5-1h-6.2v0.2c0.2,0.2,0.3,0.4,0.4,0.8s0.2,0.8,0.2,1.4v8.7c0,0.6-0.1,1.1-0.2,1.4
			c-0.1,0.3-0.3,0.6-0.4,0.8v0.2h4.3V111c-0.2-0.2-0.3-0.4-0.4-0.8s-0.2-0.8-0.2-1.4v-1.7l2.4-0.7l1.2,3c0.2,0.4,0.2,0.8,0.2,1
			c-0.1,0.3-0.2,0.5-0.3,0.6v0.2h4.6V111C64.9,110.9,64.7,110.6,64.5,110.4z M57.1,104.3v-3.9h2c0.6,0,1,0.1,1.4,0.3
			c0.3,0.3,0.5,0.6,0.5,1c0,0.3-0.1,0.7-0.3,0.9c-0.2,0.3-0.4,0.5-0.8,0.7c-0.3,0.2-0.8,0.3-1.4,0.5L57.1,104.3z"/>
		<path class="st0" d="M72.8,97.8c0.2,0.1,0.3,0.3,0.3,0.4s0,0.4-0.2,0.8l-1.8,3.3L69.3,99c-0.2-0.3-0.3-0.6-0.2-0.8
			c0.1-0.2,0.2-0.3,0.3-0.4v-0.2h-4.9v0.2c0.2,0.1,0.4,0.3,0.6,0.4s0.4,0.4,0.6,0.8l4,6.3v3.4c0,0.6-0.1,1.1-0.2,1.4
			s-0.3,0.6-0.4,0.8v0.2h4.2v-0.2c-0.2-0.2-0.3-0.4-0.4-0.8s-0.2-0.8-0.2-1.4v-3.4l3.9-6.5c0.2-0.3,0.3-0.5,0.5-0.7
			c0.2-0.2,0.3-0.3,0.5-0.3v-0.2h-4.7v0.3H72.8z"/>
		<path class="st0" d="M81.8,98.9c-0.3-0.8-0.8-1.5-1.3-2.1h-3.1c0.8,1.4,1.4,2.6,1.7,4c0.3,1.4,0.5,2.7,0.5,4.1
			c0,1.4-0.2,2.8-0.5,4.1s-0.9,2.6-1.7,4h3.1c0.4-0.5,0.8-1.2,1.3-2.1c0.3-0.8,0.7-1.8,0.8-2.9c0.2-1,0.3-2.1,0.3-3.1
			c0-1-0.1-2.1-0.3-3.1C82.4,100.6,82.2,99.7,81.8,98.9z"/>
		<path class="st0" d="M96.9,108.1c-0.3,0.1-0.8,0.2-1.4,0.2h-3.6v-8.2c0-0.6,0.1-1.1,0.2-1.4c0.1-0.3,0.3-0.6,0.5-0.8v-0.2h-4.4
			v0.2c0.2,0.2,0.3,0.4,0.4,0.8s0.2,0.8,0.2,1.4v8.7c0,0.6-0.1,1.1-0.2,1.4s-0.3,0.6-0.4,0.8v0.2h8.1c0.3,0,0.6,0,0.9,0
			c0.3,0,0.6,0.1,0.8,0.2v-3.6h-0.2C97.5,107.9,97.3,108,96.9,108.1z"/>
		<path class="st0" d="M98.9,97.8c0.2,0.2,0.3,0.4,0.4,0.8s0.2,0.8,0.2,1.4v8.7c0,0.6-0.1,1.1-0.2,1.4s-0.3,0.6-0.4,0.8v0.2h4.3V111
			c-0.2-0.2-0.3-0.4-0.4-0.8s-0.2-0.8-0.2-1.4v-8.7c0-0.6,0.1-1.1,0.2-1.4c0.1-0.3,0.3-0.6,0.4-0.8v-0.2h-4.3V97.8z"/>
		<path class="st0" d="M118,110.6c-0.2-0.2-0.3-0.5-0.5-0.8l-6.4-12.3h-0.3l-6.3,12.1c-0.2,0.4-0.4,0.8-0.6,0.9
			c-0.2,0.3-0.3,0.4-0.5,0.5v0.2h4.5V111c-0.2-0.1-0.3-0.3-0.3-0.5c0-0.3,0-0.5,0.3-0.9l0.1-0.3h5.8l0.1,0.3
			c0.2,0.3,0.3,0.7,0.3,0.9c0,0.3-0.2,0.4-0.3,0.6v0.2h4.6v-0.2C118.4,110.9,118.2,110.7,118,110.6z M112.7,106.7h-3.3l1.6-3.5
			L112.7,106.7z"/>
		<path class="st0" d="M131.8,101.6c-0.3-0.8-0.8-1.6-1.5-2.2c-0.7-0.6-1.4-1.1-2.3-1.4c-0.8-0.3-1.9-0.5-2.9-0.5
			c-1.1,0-2,0.2-2.9,0.5c-0.8,0.3-1.6,0.8-2.3,1.4c-0.7,0.6-1.1,1.4-1.5,2.2c-0.3,0.8-0.5,1.8-0.5,2.9c0,1,0.2,1.9,0.5,2.9
			c0.3,0.8,0.8,1.6,1.5,2.2c0.7,0.6,1.4,1.1,2.3,1.4c0.8,0.3,1.9,0.5,2.9,0.5c1.1,0,2-0.2,2.9-0.5c0.8-0.3,1.6-0.8,2.3-1.4
			c0.7-0.6,1.2-1.4,1.5-2.2c0.3-0.8,0.5-1.8,0.5-2.9C132.3,103.4,132.1,102.4,131.8,101.6z M128.5,106.5c-0.3,0.6-0.8,1.1-1.4,1.4
			c-0.6,0.3-1.3,0.5-2.1,0.5c-0.8,0-1.4-0.2-2-0.5c-0.6-0.3-1.1-0.8-1.4-1.4s-0.5-1.3-0.5-2.1c0-0.8,0.2-1.5,0.5-2.1
			c0.3-0.6,0.8-1.1,1.4-1.4c0.6-0.3,1.3-0.5,2-0.5s1.4,0.2,2.1,0.5c0.6,0.3,1.1,0.8,1.4,1.4c0.3,0.6,0.5,1.3,0.5,2.1
			C129.1,105.2,128.9,105.9,128.5,106.5z"/>
	</g>
</g>
</svg>
