<?xml version="1.0" encoding="utf-8"?>
<!-- Generator: Adobe Illustrator 27.5.0, SVG Export Plug-In . SVG Version: 6.00 Build 0)  -->
<svg version="1.1" id="圖層_1" xmlns="http://www.w3.org/2000/svg" xmlns:xlink="http://www.w3.org/1999/xlink" x="0px" y="0px"
	 viewBox="0 0 162.1 142.6" style="enable-background:new 0 0 162.1 142.6;" xml:space="preserve">
<style type="text/css">
	.st0{fill:#0D0D0D;}
</style>
<g>
	<g>
		<path class="st0" d="M63.6,31.5c0.3-0.3,0.5-0.5,0.8-0.6c1.3-1.2,2.7-2.2,4.3-3.1c0.4-0.3,0.8-0.5,1.3-0.6v-4.9h11.3
			c6.6,0,12.2,5.5,12.2,12.2S88,46.6,81.3,46.6c-2.5,0-4.5,2-4.5,4.5c0,2.4,1.8,4.3,4.2,4.5h0.3c2.5,0,5.1-0.5,7.3-1.3
			c1-0.4,2.1-0.9,3.1-1.5c1.2-0.6,2.4-1.5,3.4-2.5c0.8-0.6,1.5-1.5,2.2-2.4c3.1-3.8,4.8-8.5,4.8-13.4c0-11.5-9.4-20.9-20.9-20.9h-19
			v19.7C62.6,32.4,63.2,31.9,63.6,31.5z"/>
		<path class="st0" d="M81.2,72.2h19.8V51c0,0,0,0.1-0.1,0.1c-0.3,0.5-0.8,1-1.3,1.5c-0.4,0.4-0.9,0.9-1.3,1.3
			c-1.3,1.2-2.7,2.2-4.3,3c-0.5,0.3-0.9,0.5-1.5,0.8v4.7H81.2c-6.4,0-11.7-5.2-11.7-11.7c0-6.4,5.2-11.7,11.7-11.7
			c2.6,0,4.8-2.2,4.8-4.8s-2-4.7-4.6-4.8c0,0-0.1,0-0.3,0c-3,0-6,0.6-8.6,1.8l-1,0.5c-0.1,0-0.3,0-0.5,0.1c-0.1,0.1-0.3,0.1-0.4,0.3
			c-0.9,0.5-1.8,1.2-2.6,1.8c-0.1,0.1-0.3,0.3-0.4,0.4s-0.3,0.3-0.4,0.4l-0.1,0.1L67.1,35L67,35l-0.1,0.1c-0.1,0.1-0.1,0.1-0.3,0.3
			c-0.3,0.3-0.4,0.4-0.6,0.6c-0.1,0.1-0.1,0.3-0.3,0.3L64.9,37c-3.1,3.8-4.8,8.6-4.8,13.6C59.9,62.6,69.4,72.2,81.2,72.2z"/>
	</g>
	<g>
		<path class="st0" d="M29.6,98.3c-0.2-0.1-0.3-0.3-0.4-0.6c-0.1-0.3,0-0.6,0.3-1l2.4-3.7l2.5,3.8c0.2,0.4,0.3,0.7,0.3,0.9
			c0,0.3-0.1,0.5-0.3,0.6v0.2h6v-0.2c-0.2-0.1-0.3-0.2-0.5-0.4s-0.4-0.4-0.5-0.7l-4.7-7.3l4.1-6.5c0.2-0.3,0.4-0.5,0.5-0.6
			c0.2-0.2,0.4-0.3,0.5-0.3v-0.2H34v0.2c0.1,0.1,0.2,0.2,0.3,0.5c0.1,0.2,0,0.5-0.2,0.9l-2.1,3.4l-2.2-3.5c-0.2-0.3-0.3-0.6-0.2-0.8
			c0.1-0.2,0.2-0.4,0.3-0.5v-0.2h-5.8v0.2c0.1,0.1,0.3,0.2,0.5,0.3c0.2,0.2,0.4,0.4,0.6,0.6l4.2,6.6L25.1,97
			c-0.2,0.3-0.4,0.6-0.6,0.8c-0.2,0.2-0.4,0.3-0.5,0.4v0.2h5.7v-0.2H29.6z"/>
		<path class="st0" d="M41,82.4c0.2,0.2,0.4,0.5,0.5,0.9c0.1,0.4,0.2,1,0.2,1.7v10.6c0,0.7-0.1,1.3-0.2,1.7
			c-0.1,0.4-0.3,0.7-0.5,0.9v0.2h5.2v-0.2c-0.2-0.2-0.4-0.5-0.5-0.9c-0.1-0.4-0.2-1-0.2-1.7V85c0-0.7,0.1-1.3,0.2-1.7
			c0.1-0.4,0.3-0.7,0.5-0.9v-0.2H41V82.4z"/>
		<path class="st0" d="M52.2,98.3c-0.2-0.1-0.3-0.4-0.4-0.6c0-0.3,0-0.6,0.3-1.1l0.1-0.3h7l0.1,0.3c0.2,0.4,0.3,0.8,0.3,1.1
			c0,0.3-0.2,0.5-0.4,0.7v0.2h5.5v-0.2c-0.2-0.1-0.3-0.2-0.5-0.5c-0.2-0.2-0.4-0.6-0.6-1L55.9,82h-0.3L48,96.6
			c-0.2,0.5-0.5,0.9-0.7,1.1c-0.2,0.3-0.4,0.5-0.6,0.6v0.2h5.4v-0.3H52.2z M53.8,93.1l1.9-4.2l2.1,4.2H53.8z"/>
		<path class="st0" d="M78.8,83.3c0.1-0.4,0.3-0.7,0.5-0.9v-0.2h-5.2v0.2c0.2,0.2,0.4,0.5,0.5,0.9c0.1,0.4,0.2,1,0.2,1.7v3.3
			l-4.6-3.8c-0.4-0.3-0.6-0.6-0.6-1c-0.1-0.4,0-0.7,0.2-1.1v-0.1h-4.5v0.2c0.3,0.2,0.5,0.5,0.6,1c0.1,0.5,0.2,1.1,0.2,1.8v10.4
			c0,0.7-0.1,1.3-0.2,1.7c-0.1,0.4-0.3,0.7-0.5,0.9v0.2h5.1v-0.2c-0.2-0.2-0.4-0.5-0.5-0.9c-0.1-0.4-0.2-1-0.2-1.7v-7.1l5,4.2v2.8
			c0,0.7-0.1,1.3-0.2,1.7c-0.1,0.4-0.3,0.7-0.5,0.9v0.2h5.2v-0.2c-0.2-0.2-0.4-0.5-0.5-0.9c-0.1-0.4-0.2-1-0.2-1.7V85
			C78.6,84.3,78.6,83.7,78.8,83.3z"/>
		<rect x="80.4" y="91.1" class="st0" width="6.6" height="3"/>
		<path class="st0" d="M96.9,82.4c0.2,0.2,0.4,0.5,0.5,0.9c0.1,0.4,0.2,1,0.2,1.7v2.3h-5V85c0-0.7,0.1-1.3,0.2-1.7
			c0.1-0.4,0.3-0.7,0.5-0.9v-0.2h-5.1v0.2c0.2,0.2,0.4,0.5,0.5,0.9c0.1,0.4,0.2,1,0.2,1.7v10.6c0,0.7-0.1,1.3-0.2,1.7
			c-0.1,0.4-0.3,0.7-0.5,0.9v0.2h5.1v-0.2c-0.2-0.2-0.4-0.5-0.5-0.9c-0.1-0.4-0.2-1-0.2-1.7v-4.9h5v4.8c0,0.7-0.1,1.3-0.2,1.7
			c-0.1,0.4-0.3,0.7-0.5,0.9v0.2h5.2v-0.2c-0.2-0.2-0.4-0.5-0.5-0.9c-0.1-0.4-0.2-1-0.2-1.7V85c0-0.7,0.1-1.3,0.2-1.7
			c0.1-0.4,0.3-0.7,0.5-0.9v-0.2h-5.2V82.4z"/>
		<path class="st0" d="M115.1,98.5h5.5v-0.2c-0.2-0.1-0.3-0.2-0.5-0.5c-0.2-0.2-0.4-0.6-0.6-1l-7.7-14.9h-0.3l-7.6,14.7
			c-0.2,0.5-0.5,0.9-0.7,1.1c-0.2,0.3-0.4,0.5-0.6,0.6v0.2h5.4v-0.2c-0.2-0.1-0.3-0.4-0.4-0.6c0-0.3,0-0.6,0.3-1.1l0.1-0.3h7
			l0.1,0.3c0.2,0.4,0.3,0.8,0.3,1.1c0,0.3-0.2,0.5-0.4,0.7v0.1H115.1z M113.6,93.1h-4l1.9-4.2L113.6,93.1z"/>
		<path class="st0" d="M122.3,96.5c0.8,0.7,1.7,1.3,2.8,1.7c1,0.4,2.3,0.6,3.5,0.6c1.3,0,2.5-0.2,3.5-0.6c1-0.4,1.9-1,2.8-1.7
			c0.8-0.7,1.4-1.6,1.8-2.7c0.4-1,0.6-2.2,0.6-3.5c0-1.2-0.2-2.4-0.6-3.5c-0.4-1-1-1.9-1.8-2.7c-0.8-0.7-1.7-1.3-2.8-1.7
			c-1-0.4-2.3-0.6-3.5-0.6c-1.3,0-2.5,0.2-3.5,0.6c-1,0.4-1.9,1-2.8,1.7c-0.8,0.7-1.3,1.6-1.8,2.7c-0.4,1-0.6,2.2-0.6,3.5
			c0,1.2,0.2,2.4,0.6,3.5C121,94.8,121.5,95.7,122.3,96.5z M124.4,87.8c0.4-0.7,1-1.3,1.7-1.7c0.7-0.4,1.5-0.6,2.5-0.6
			s1.7,0.2,2.6,0.6c0.7,0.4,1.3,1,1.6,1.7c0.4,0.7,0.6,1.5,0.6,2.6c0,0.9-0.2,1.8-0.6,2.6c-0.4,0.7-0.9,1.3-1.6,1.7
			s-1.5,0.6-2.6,0.6c-0.9,0-1.7-0.2-2.5-0.6c-0.7-0.4-1.3-1-1.7-1.7c-0.4-0.7-0.6-1.5-0.6-2.6C123.7,89.3,123.9,88.5,124.4,87.8z"/>
		<path class="st0" d="M12.1,109.2H8.4c-0.5,0.6-1,1.4-1.5,2.6c-0.4,1-0.8,2.2-1,3.5c-0.2,1.2-0.4,2.5-0.4,3.8
			c0,1.2,0.1,2.6,0.4,3.8c0.2,1.2,0.6,2.4,1,3.5c0.4,1,0.9,1.8,1.5,2.6h3.7c-0.9-1.6-1.6-3.2-2.1-4.8c-0.4-1.5-0.6-3.3-0.6-4.9
			c0-1.7,0.2-3.4,0.6-4.9C10.4,112.4,11.2,110.8,12.1,109.2z"/>
		<path class="st0" d="M22,110.6c0.2,0.2,0.4,0.5,0.5,0.9c0.1,0.4,0.2,1,0.2,1.7v2.3h-5v-2.3c0-0.7,0.1-1.3,0.2-1.7s0.3-0.7,0.5-0.9
			v-0.2h-5.1v0.2c0.2,0.2,0.4,0.5,0.5,0.9c0.1,0.4,0.2,1,0.2,1.7v10.6c0,0.7-0.1,1.3-0.2,1.7c-0.1,0.4-0.3,0.7-0.5,0.9v0.2h5.1v-0.2
			c-0.2-0.2-0.4-0.5-0.5-0.9c-0.1-0.4-0.2-1-0.2-1.7V119h5v4.8c0,0.7-0.1,1.3-0.2,1.7c-0.1,0.4-0.3,0.7-0.5,0.9v0.2h5.2v-0.2
			c-0.2-0.2-0.4-0.5-0.5-0.9c-0.1-0.4-0.2-1-0.2-1.7v-10.6c0-0.7,0.1-1.3,0.2-1.7s0.3-0.7,0.5-0.9v-0.2H22V110.6z"/>
		<path class="st0" d="M45.2,126c-0.2-0.2-0.4-0.6-0.6-1l-7.7-14.9h-0.3L29,124.7c-0.2,0.5-0.5,0.9-0.7,1.1
			c-0.2,0.3-0.4,0.5-0.6,0.6v0.2h5.4v-0.2c-0.2-0.1-0.3-0.4-0.4-0.6c0-0.3,0-0.6,0.3-1.1l0.1-0.3h7l0.1,0.3c0.2,0.4,0.3,0.8,0.3,1.1
			s-0.2,0.5-0.4,0.7v0.2h5.5v-0.2C45.6,126.4,45.4,126.2,45.2,126z M38.8,121.3h-4l1.9-4.2L38.8,121.3z"/>
		<path class="st0" d="M59.8,125.8c-0.3-0.4-0.5-0.8-0.7-1.3l-2.1-4.9c0.4-0.3,0.8-0.5,1.1-0.9c0.9-0.9,1.3-2.1,1.3-3.5
			c0-1.5-0.5-2.7-1.4-3.5c-1-0.8-2.4-1.2-4.2-1.2h-7.5v0.2c0.2,0.2,0.4,0.5,0.6,0.9c0.1,0.4,0.2,1,0.2,1.7v10.6
			c0,0.7-0.1,1.3-0.2,1.7c-0.1,0.4-0.3,0.7-0.5,0.9v0.2h5.2v-0.2c-0.2-0.2-0.4-0.5-0.5-0.9c-0.1-0.4-0.2-1-0.2-1.7v-2.1l2.9-0.8
			l1.4,3.6c0.2,0.5,0.2,0.9,0.2,1.2c-0.1,0.3-0.2,0.6-0.4,0.7v0.2h5.4v-0.2C60.3,126.4,60.1,126.1,59.8,125.8z M50.9,118.4v-4.7h2.5
			c0.7,0,1.2,0.1,1.6,0.4c0.4,0.3,0.6,0.7,0.6,1.2c0,0.4-0.1,0.8-0.3,1.1c-0.2,0.3-0.5,0.6-0.9,0.8s-1,0.4-1.7,0.6L50.9,118.4z"/>
		<path class="st0" d="M74.6,125.8c-0.3-0.4-0.5-0.8-0.7-1.3l-2.1-4.9c0.4-0.3,0.8-0.5,1.1-0.9c0.9-0.9,1.3-2.1,1.3-3.5
			c0-1.5-0.5-2.7-1.4-3.5c-1-0.8-2.4-1.2-4.2-1.2h-7.5v0.2c0.2,0.2,0.4,0.5,0.5,0.9c0.1,0.4,0.2,1,0.2,1.7v10.6
			c0,0.7-0.1,1.3-0.2,1.7c-0.1,0.4-0.3,0.7-0.5,0.9v0.2h5.2v-0.2c-0.2-0.2-0.4-0.5-0.5-0.9c-0.1-0.4-0.2-1-0.2-1.7v-2.1l2.9-0.8
			l1.4,3.6c0.2,0.5,0.2,0.9,0.2,1.2c-0.1,0.3-0.2,0.6-0.4,0.7v0.2h5.5v-0.2C75.1,126.4,74.9,126.1,74.6,125.8z M65.7,118.4v-4.7h2.5
			c0.7,0,1.2,0.1,1.6,0.4s0.6,0.7,0.6,1.2c0,0.4-0.1,0.8-0.3,1.1c-0.2,0.3-0.5,0.6-0.9,0.8s-1,0.4-1.7,0.6L65.7,118.4z"/>
		<path class="st0" d="M84.6,110.6c0.2,0.1,0.3,0.3,0.4,0.5c0.1,0.2,0,0.5-0.2,0.9l-2.2,4l-2.3-4c-0.2-0.4-0.3-0.7-0.2-1
			c0.1-0.2,0.2-0.4,0.4-0.5v-0.2h-6v0.2c0.2,0.1,0.5,0.3,0.7,0.5c0.2,0.2,0.5,0.5,0.7,0.9l4.8,7.6v4.1c0,0.7-0.1,1.3-0.2,1.7
			s-0.3,0.7-0.5,0.9v0.2h5.1v-0.2c-0.2-0.2-0.4-0.5-0.5-0.9c-0.1-0.4-0.2-1-0.2-1.7v-4.1l4.7-7.9c0.2-0.3,0.4-0.6,0.6-0.8
			c0.2-0.2,0.4-0.3,0.6-0.4v-0.2h-5.7v0.4H84.6z"/>
		<path class="st0" d="M95.6,111.8c-0.4-1-0.9-1.8-1.5-2.6h-3.7c0.9,1.6,1.6,3.2,2.1,4.8c0.4,1.6,0.6,3.3,0.6,4.9
			c0,1.7-0.2,3.4-0.6,4.9c-0.4,1.5-1.1,3.2-2.1,4.8h3.7c0.5-0.6,1-1.4,1.5-2.6c0.4-1,0.8-2.2,1-3.5c0.2-1.2,0.4-2.6,0.4-3.8
			s-0.1-2.6-0.4-3.8C96.3,114,96,112.8,95.6,111.8z"/>
		<path class="st0" d="M113.9,123c-0.4,0.1-1,0.2-1.7,0.2h-4.4v-10c0-0.7,0.1-1.3,0.2-1.7c0.1-0.4,0.3-0.7,0.6-0.9v-0.2h-5.3v0.2
			c0.2,0.2,0.4,0.5,0.5,0.9c0.1,0.4,0.2,1,0.2,1.7v10.6c0,0.7-0.1,1.3-0.2,1.7c-0.1,0.4-0.3,0.7-0.5,0.9v0.2h9.7c0.4,0,0.7,0,1.1,0
			c0.3,0,0.7,0.1,0.9,0.2v-4.4h-0.2C114.6,122.7,114.3,122.9,113.9,123z"/>
		<path class="st0" d="M116.3,110.6c0.2,0.2,0.4,0.5,0.5,0.9c0.1,0.4,0.2,1,0.2,1.7v10.6c0,0.7-0.1,1.3-0.2,1.7
			c-0.1,0.4-0.3,0.7-0.5,0.9v0.2h5.2v-0.2c-0.2-0.2-0.4-0.5-0.5-0.9c-0.1-0.4-0.2-1-0.2-1.7v-10.6c0-0.7,0.1-1.3,0.2-1.7
			c0.1-0.4,0.3-0.7,0.5-0.9v-0.2h-5.2V110.6z"/>
		<path class="st0" d="M139.4,126c-0.2-0.2-0.4-0.6-0.6-1l-7.7-14.9h-0.3l-7.6,14.7c-0.2,0.5-0.5,0.9-0.7,1.1
			c-0.2,0.3-0.4,0.5-0.6,0.6v0.2h5.4v-0.2c-0.2-0.1-0.3-0.4-0.4-0.6c0-0.3,0-0.6,0.3-1.1l0.1-0.3h7l0.1,0.3c0.2,0.4,0.3,0.8,0.3,1.1
			s-0.2,0.5-0.4,0.7v0.2h5.5v-0.2C139.9,126.4,139.7,126.2,139.4,126z M133,121.3h-4l1.9-4.2L133,121.3z"/>
		<path class="st0" d="M156.1,115.1c-0.4-1-1-1.9-1.8-2.7c-0.8-0.7-1.7-1.3-2.8-1.7c-1-0.4-2.3-0.6-3.5-0.6c-1.3,0-2.5,0.2-3.5,0.6
			c-1,0.4-1.9,1-2.8,1.7c-0.8,0.7-1.3,1.6-1.8,2.7c-0.4,1-0.6,2.2-0.6,3.5c0,1.2,0.2,2.4,0.6,3.5c0.4,1,1,1.9,1.8,2.7
			c0.8,0.7,1.7,1.3,2.8,1.7c1,0.4,2.3,0.6,3.5,0.6c1.3,0,2.5-0.2,3.5-0.6c1-0.4,1.9-1,2.8-1.7c0.8-0.7,1.4-1.6,1.8-2.7
			c0.4-1,0.6-2.2,0.6-3.5C156.7,117.3,156.5,116.1,156.1,115.1z M152.2,121.1c-0.4,0.7-0.9,1.3-1.6,1.7c-0.7,0.4-1.5,0.6-2.6,0.6
			c-0.9,0-1.7-0.2-2.5-0.6c-0.7-0.4-1.3-1-1.7-1.7c-0.4-0.7-0.6-1.5-0.6-2.6c0-0.9,0.2-1.8,0.6-2.6c0.4-0.7,1-1.3,1.7-1.7
			c0.7-0.4,1.5-0.6,2.5-0.6c0.9,0,1.7,0.2,2.6,0.6c0.7,0.4,1.3,1,1.6,1.7c0.4,0.7,0.6,1.5,0.6,2.6
			C152.8,119.5,152.6,120.3,152.2,121.1z"/>
	</g>
</g>
</svg>
