<?xml version="1.0" encoding="UTF-8"?>
<svg id="_圖層_1" data-name="圖層 1" xmlns="http://www.w3.org/2000/svg" version="1.1" viewBox="0 0 58.7 55">
  <defs>
    <style>
      .cls-1 {
        fill: #fff;
        stroke-width: 0px;
      }
    </style>
  </defs>
  <path class="cls-1" d="M14.8,18.1h0c.2-.2.4-.4.6-.6,1.1-1,2.3-1.9,3.6-2.6.3-.2.7-.4,1-.6v-4h9.4c5.6,0,10.1,4.5,10.1,10.1s-4.5,10.1-10.1,10.1-3.7,1.7-3.7,3.7,1.5,3.6,3.5,3.7h.2c2.1,0,4.2-.4,6.2-1.1.9-.3,1.8-.7,2.6-1.2,1-.6,2-1.3,2.8-2,.7-.6,1.3-1.2,1.9-1.9,2.6-3.1,4.1-7.1,4.1-11.2,0-9.7-7.9-17.5-17.5-17.5H13.5v16.4c.4-.5.9-.9,1.3-1.3Z"/>
  <path class="cls-1" d="M44.8,35.8l-1.1,1.1c-1.1,1-2.3,1.9-3.6,2.6-.4.2-.8.4-1.2.6v3.9h-9.3c-5.4,0-9.8-4.4-9.8-9.8s4.4-9.8,9.8-9.8,4.1-1.8,4.1-4.1-1.7-3.9-3.9-4h-.2c-2.5,0-5,.5-7.3,1.5l-.9.4c-.1.1-.2.1-.4.2-.1.1-.2.1-.4.2h0c-.8.4-1.5.9-2.2,1.5l-.3.3-.3.3h-.1c0,.1-.1.2-.1.2h-.1c0,.1-.1.2-.1.2h0c-.1.2-.2.3-.2.3l-.5.5c-.1.1-.2.2-.2.3l-.5.6c-2.6,3.2-4.1,7.2-4.1,11.3,0,9.9,8,17.9,17.9,17.9h16.5v-17.6s0,0,0,0c-.6.4-1,.9-1.4,1.3Z"/>
</svg>