<?xml version="1.0" encoding="utf-8"?>
<!-- Generator: Adobe Illustrator 23.0.0, SVG Export Plug-In . SVG Version: 6.00 Build 0)  -->
<svg version="1.1" id="圖層_1" xmlns="http://www.w3.org/2000/svg" xmlns:xlink="http://www.w3.org/1999/xlink" x="0px" y="0px"
	 viewBox="0 0 441.3 123.1" style="enable-background:new 0 0 441.3 123.1;" xml:space="preserve">
<style type="text/css">
	.st0{fill:#0D0D0D;}
</style>
<g>
	<g>
		<path class="st0" d="M164.6,55.7l-9.2-16.2h-5.9v16.2h-10.9V10.7h17.3c10.2,0,18.5,3.3,18.5,14c0,6.6-3.5,10.9-8.5,13l10.8,18
			H164.6z M149.5,31.4h5.5c5.7,0,8.8-2.3,8.8-6.7c0-4.4-3.1-5.9-8.8-5.9h-5.5V31.4z"/>
		<path class="st0" d="M183.3,10.7h30.1v8.6h-19.2v9.1h16.3v8.5h-16.3v10.4h19.9v8.6h-30.8V10.7z"/>
		<path class="st0" d="M222.9,10.7h11.1l12.5,22.4l4.8,9.9h0.3c-0.5-4.8-1.4-11.1-1.4-16.4V10.7h10.3v45.1h-11.1l-12.5-22.5
			l-4.7-9.8h-0.3c0.5,5,1.4,11,1.4,16.3v16h-10.4V10.7z"/>
		<path class="st0" d="M269,33c0-14.7,8.9-23.2,21.8-23.2c12.9,0,21.8,8.5,21.8,23.2c0,14.7-8.8,23.6-21.8,23.6
			C277.9,56.6,269,47.7,269,33z M301.4,33c0-9-4.1-14.4-10.7-14.4c-6.5,0-10.7,5.4-10.7,14.4c0,9.1,4.2,14.8,10.7,14.8
			C297.3,47.8,301.4,42.1,301.4,33z"/>
		<path class="st0" d="M160,70.3c6.8,0,11.7,2.8,14.9,5.9l-6,6.3c-2.4-2.1-4.7-3.4-8.8-3.4c-7.4,0-12.7,5.5-12.7,14.5
			c0,9.3,4.5,14.7,13.5,14.7c1.9,0,3.9-0.5,5.1-1.4v-7.7h-7.9v-8.3h17.6v20.7c-3.5,2.8-9.4,5.5-16.1,5.5c-12.9,0-23.2-7.9-23.2-23.1
			C136.4,79,147,70.3,160,70.3z"/>
		<path class="st0" d="M182,93.4c0-14.7,8.9-23.2,21.8-23.2c12.9,0,21.8,8.5,21.8,23.2c0,14.7-8.8,23.6-21.8,23.6
			C190.9,117,182,108.2,182,93.4z M214.5,93.4c0-9-4.1-14.4-10.7-14.4c-6.5,0-10.7,5.4-10.7,14.4c0,9.1,4.2,14.8,10.7,14.8
			C210.3,108.2,214.5,102.5,214.5,93.4z"/>
		<path class="st0" d="M259.4,116.2l-9.2-16.2h-5.9v16.2h-10.9V71.1h17.3c10.2,0,18.5,3.3,18.5,14c0,6.6-3.5,10.9-8.5,13l10.8,18
			H259.4z M244.3,91.9h5.5c5.7,0,8.8-2.3,8.8-6.7c0-4.4-3.1-5.9-8.8-5.9h-5.5V91.9z"/>
		<path class="st0" d="M277.5,71.1h13.5c14.7,0,24.1,6.8,24.1,22.3c0,15.5-9.4,22.7-23.5,22.7h-14.2V71.1z M290.5,108
			c8.1,0,13.6-3.7,13.6-14.5c0-10.8-5.5-14.1-13.6-14.1h-2.1V108H290.5z"/>
		<path class="st0" d="M320.8,93.4c0-14.7,8.9-23.2,21.8-23.2c12.9,0,21.8,8.5,21.8,23.2c0,14.7-8.8,23.6-21.8,23.6
			C329.7,117,320.8,108.2,320.8,93.4z M353.2,93.4c0-9-4.1-14.4-10.7-14.4c-6.5,0-10.7,5.4-10.7,14.4c0,9.1,4.2,14.8,10.7,14.8
			C349.1,108.2,353.2,102.5,353.2,93.4z"/>
		<path class="st0" d="M372.2,71.1h11.1l12.5,22.4l4.8,10h0.3c-0.5-4.8-1.4-11.1-1.4-16.5V71.1h10.3v45.1h-11.1l-12.5-22.5l-4.7-9.8
			h-0.3c0.5,5,1.4,11,1.4,16.3v16h-10.4V71.1z"/>
	</g>
	<g>
		<path class="st0" d="M50.8,41.9C50.8,41.9,50.8,41.9,50.8,41.9c0.5-0.5,0.9-0.9,1.4-1.3c2.4-2.1,5-4,7.8-5.6
			c0.8-0.4,1.5-0.8,2.3-1.2v-8.7h20.4c12.1,0,21.9,9.8,21.9,21.9c0,12.1-9.8,21.9-21.9,21.9c-4.4,0-8,3.6-8,8c0,4.3,3.3,7.8,7.6,8
			h0.4c4.6,0,9.1-0.8,13.3-2.4c1.9-0.7,3.8-1.6,5.6-2.6c2.2-1.2,4.2-2.7,6.1-4.4c1.5-1.3,2.8-2.7,4-4.2c5.6-6.8,8.8-15.3,8.8-24.2
			c0-20.9-17-37.8-37.9-37.8H48.1v35.6C48.9,43.7,49.8,42.8,50.8,41.9z"/>
		<path class="st0" d="M115.6,80.2c-0.8,0.8-1.6,1.6-2.5,2.4c-2.4,2.1-5,4-7.7,5.6c-0.8,0.5-1.7,1-2.6,1.4V98H82.6
			C71,98,61.5,88.5,61.5,76.9c0-11.6,9.5-21.1,21.1-21.1c4.8,0,8.8-3.9,8.8-8.8c0-4.7-3.7-8.5-8.3-8.8c-0.1,0-0.2,0-0.4,0
			c-5.4,0-10.8,1.1-15.7,3.3l-2,1c-0.2,0.1-0.5,0.3-0.8,0.4c-0.2,0.1-0.5,0.3-0.8,0.4c0,0,0,0,0,0c-1.7,1-3.2,2-4.8,3.3
			c-0.2,0.2-0.5,0.4-0.8,0.6c-0.2,0.2-0.5,0.4-0.7,0.6c-0.1,0.1-0.2,0.2-0.3,0.3c-0.1,0.1-0.1,0.1-0.2,0.2c-0.1,0.1-0.2,0.1-0.2,0.2
			c-0.1,0.1-0.2,0.1-0.3,0.2c0,0-0.1,0.1-0.1,0.1c-0.2,0.2-0.3,0.3-0.5,0.5c-0.4,0.4-0.8,0.8-1.1,1.1c-0.2,0.2-0.3,0.4-0.5,0.5
			l-1.1,1.2C47.1,59.2,44,67.9,44,76.9c0,21.3,17.3,38.6,38.6,38.6h35.7V77.2c0,0.1-0.1,0.1-0.2,0.2
			C117.4,78.4,116.5,79.3,115.6,80.2z"/>
	</g>
</g>
</svg>
