<?xml version="1.0" encoding="utf-8"?>
<!-- Generator: Adobe Illustrator 27.5.0, SVG Export Plug-In . SVG Version: 6.00 Build 0)  -->
<svg version="1.1" id="圖層_1" xmlns="http://www.w3.org/2000/svg" xmlns:xlink="http://www.w3.org/1999/xlink" x="0px" y="0px"
	 viewBox="0 0 139.6 130.8" style="enable-background:new 0 0 139.6 130.8;" xml:space="preserve">
<style type="text/css">
	.st0{fill:#0D0D0D;}
</style>
<g>
	<g>
		<path class="st0" d="M55.4,34.8c0.2-0.2,0.4-0.4,0.7-0.5c1.1-1,2.2-1.8,3.6-2.6c0.3-0.2,0.7-0.4,1.1-0.5v-4H70
			c5.5,0,10.1,4.5,10.1,10.1s-4.5,10-10.1,10c-2.1,0-3.7,1.7-3.7,3.7c0,2,1.5,3.6,3.5,3.7H70c2.1,0,4.2-0.4,6-1.1
			c0.8-0.3,1.7-0.7,2.6-1.2c1-0.5,2-1.2,2.8-2.1c0.7-0.5,1.2-1.2,1.8-2c2.6-3.1,4-7,4-11.1c0-9.5-7.8-17.3-17.3-17.3H54.2v16.3
			C54.6,35.6,55.1,35.1,55.4,34.8z"/>
		<path class="st0" d="M69.9,68.4h16.4V50.9c0,0,0,0.1-0.1,0.1c-0.2,0.4-0.7,0.8-1.1,1.2c-0.3,0.3-0.7,0.7-1.1,1.1
			c-1.1,1-2.2,1.8-3.6,2.5c-0.4,0.2-0.7,0.4-1.2,0.7v3.9h-9.3c-5.3,0-9.7-4.3-9.7-9.7c0-5.3,4.3-9.7,9.7-9.7c2.1,0,4-1.8,4-4
			s-1.7-3.9-3.8-4c0,0-0.1,0-0.2,0c-2.5,0-5,0.5-7.1,1.5L61.9,35c-0.1,0-0.2,0-0.4,0.1c-0.1,0.1-0.2,0.1-0.3,0.2
			c-0.7,0.4-1.5,1-2.1,1.5c-0.1,0.1-0.2,0.2-0.3,0.3c-0.1,0.1-0.2,0.2-0.3,0.3l-0.1,0.1v0.2h-0.1l-0.1,0.1C58,37.9,58,37.9,57.9,38
			c-0.2,0.2-0.3,0.3-0.5,0.5c-0.1,0.1-0.1,0.2-0.2,0.2l-0.7,0.6c-2.6,3.1-4,7.1-4,11.2C52.3,60.5,60.2,68.4,69.9,68.4z"/>
	</g>
	<g>
		<g>
			<g>
				<polygon points="32.9,92 28.2,84.3 32.8,76.9 27.7,76.9 25.6,80.1 23.7,76.9 18.5,76.9 23.1,84.3 18.4,92 23.5,92 25.6,88.4 
					27.8,92 				"/>
				<rect x="34.1" y="76.9" width="4.4" height="15.1"/>
				<path d="M44.1,76.9L39.6,92h4.6l0.5-1.9h3.6l0.5,1.9h4.6l-4.5-15.1H44.1z M45.6,86.1l0.8-3.2l0.8,3.2H45.6z"/>
				<polygon points="58.4,83.9 62.4,92 66.6,92 66.6,76.9 62.4,76.9 62.4,84.1 58.8,76.9 54.3,76.9 54.3,92 58.4,92 				"/>
				<rect x="68" y="82.6" width="10" height="3.8"/>
				<polygon points="83.9,86.3 87.5,86.3 87.5,92 91.8,92 91.8,76.9 87.5,76.9 87.5,82.1 83.9,82.1 83.9,76.9 79.6,76.9 79.6,92 
					83.9,92 				"/>
				<path d="M102,76.9h-4.7L92.8,92h4.6l0.5-1.9h3.6l0.5,1.9h4.6L102,76.9z M98.8,86.1l0.8-3.2l0.8,3.2H98.8z"/>
				<path d="M120.7,87.7c0.3-1,0.5-2.1,0.5-3.3c0-1.2-0.2-2.3-0.5-3.3c-0.3-1-0.8-1.8-1.4-2.4c-0.6-0.7-1.4-1.1-2.3-1.5
					c-0.9-0.3-1.8-0.5-2.9-0.5c-1.1,0-2.1,0.2-2.9,0.5c-0.9,0.3-1.6,0.8-2.3,1.5c-0.6,0.7-1.1,1.5-1.4,2.4c-0.3,1-0.5,2.1-0.5,3.3
					c0,1.2,0.2,2.3,0.5,3.3c0.3,1,0.8,1.8,1.4,2.4c0.6,0.7,1.4,1.1,2.3,1.5c0.9,0.3,1.8,0.5,2.9,0.5c1.1,0,2.1-0.2,2.9-0.5
					c0.9-0.3,1.6-0.8,2.3-1.5C119.9,89.5,120.4,88.7,120.7,87.7z M116,87.1c-0.5,0.6-1.1,0.9-2,0.9c-0.8,0-1.4-0.3-1.9-0.9
					c-0.5-0.6-0.7-1.5-0.7-2.8c0-1.2,0.2-2.2,0.7-2.8c0.5-0.6,1.1-0.9,1.9-0.9s1.5,0.3,1.9,0.9c0.5,0.6,0.7,1.5,0.7,2.8
					C116.7,85.6,116.5,86.5,116,87.1z"/>
			</g>
			<g>
				<path d="M9.2,95.5H5.7c-0.3,0.4-0.7,0.9-1,1.5S4.2,98.1,4,98.7c-0.2,0.6-0.4,1.3-0.5,2.1c-0.1,0.7-0.2,1.5-0.2,2.3
					c0,0.8,0.1,1.5,0.2,2.3c0.1,0.7,0.3,1.4,0.5,2c0.2,0.6,0.5,1.2,0.8,1.8c0.3,0.5,0.6,1,1,1.5h3.5c-0.6-1-1.1-2.2-1.5-3.5
					s-0.5-2.6-0.5-4.1c0-1.5,0.2-2.8,0.5-4.1C8.1,97.6,8.6,96.5,9.2,95.5z"/>
				<polygon points="18.6,100.6 15,100.6 15,95.5 10.7,95.5 10.7,110.5 15,110.5 15,104.9 18.6,104.9 18.6,110.5 22.9,110.5 
					22.9,95.5 18.6,95.5 				"/>
				<path d="M28.4,95.5l-4.5,15.1h4.6l0.5-1.9h3.6l0.5,1.9h4.6l-4.5-15.1H28.4z M30,104.7l0.8-3.2l0.8,3.2H30z"/>
				<path d="M49.8,103.7c0.3-0.8,0.5-1.7,0.5-2.8c0-1.1-0.2-2-0.5-2.7c-0.3-0.7-0.8-1.3-1.3-1.7c-0.5-0.4-1.2-0.7-1.9-0.9
					c-0.7-0.2-1.6-0.3-2.4-0.3h-5.6v15.1H43v-4.1h0.8l2,4.1h5.2l-2.6-5C49,105.1,49.5,104.5,49.8,103.7z M45.4,102
					c-0.3,0.2-0.9,0.3-1.6,0.3H43v-2.8h0.8c0.3,0,0.6,0,0.9,0s0.5,0.1,0.7,0.2c0.2,0.1,0.3,0.2,0.4,0.4c0.1,0.2,0.2,0.4,0.2,0.8
					C45.9,101.5,45.8,101.8,45.4,102z"/>
				<path d="M63,103.7c0.3-0.8,0.5-1.7,0.5-2.8c0-1.1-0.2-2-0.5-2.7c-0.3-0.7-0.8-1.3-1.3-1.7c-0.5-0.4-1.2-0.7-1.9-0.9
					s-1.6-0.3-2.4-0.3h-5.6v15.1h4.4v-4.1H57l2,4.1h5.2l-2.6-5C62.2,105.1,62.7,104.5,63,103.7z M58.6,102c-0.3,0.2-0.9,0.3-1.6,0.3
					h-0.8v-2.8H57c0.3,0,0.6,0,0.9,0c0.3,0,0.5,0.1,0.7,0.2c0.2,0.1,0.3,0.2,0.4,0.4c0.1,0.2,0.2,0.4,0.2,0.8
					C59.1,101.5,58.9,101.8,58.6,102z"/>
				<polygon points="70.6,100 68.7,95.5 63.7,95.5 68.4,104.6 68.4,110.5 72.8,110.5 72.8,104.6 77.5,95.5 72.5,95.5 				"/>
				<path d="M83.7,98.7c-0.2-0.6-0.5-1.2-0.8-1.8c-0.3-0.5-0.6-1-1-1.5h-3.5c0.6,1,1.1,2.2,1.5,3.5s0.5,2.6,0.5,4.1
					c0,1.4-0.2,2.8-0.5,4.1c-0.4,1.3-0.9,2.4-1.5,3.5H82c0.3-0.4,0.7-0.9,1-1.5c0.3-0.5,0.6-1.1,0.8-1.8c0.2-0.6,0.4-1.3,0.5-2
					c0.1-0.7,0.2-1.5,0.2-2.3c0-0.8-0.1-1.5-0.2-2.3C84.1,100,83.9,99.3,83.7,98.7z"/>
				<polygon points="94.7,95.5 90.4,95.5 90.4,110.5 101,110.5 101,106.4 94.7,106.4 				"/>
				<rect x="102.4" y="95.5" width="4.4" height="15.1"/>
				<path d="M112.4,95.5l-4.5,15.1h4.6l0.5-1.9h3.6l0.5,1.9h4.6l-4.5-15.1H112.4z M114,104.7l0.8-3.2l0.8,3.2H114z"/>
				<path d="M135.9,99.7c-0.3-1-0.8-1.8-1.4-2.4c-0.6-0.7-1.4-1.1-2.3-1.5s-1.8-0.5-2.9-0.5s-2.1,0.2-2.9,0.5
					c-0.9,0.3-1.6,0.8-2.3,1.5c-0.6,0.7-1.1,1.5-1.4,2.4c-0.3,1-0.5,2.1-0.5,3.3s0.2,2.3,0.5,3.3c0.3,1,0.8,1.8,1.4,2.4
					c0.6,0.7,1.4,1.1,2.3,1.5c0.9,0.3,1.8,0.5,2.9,0.5s2.1-0.2,2.9-0.5c0.9-0.3,1.6-0.8,2.3-1.5c0.6-0.7,1.1-1.5,1.4-2.4
					c0.3-1,0.5-2.1,0.5-3.3S136.2,100.6,135.9,99.7z M131.2,105.7c-0.5,0.6-1.1,0.9-2,0.9c-0.8,0-1.4-0.3-1.9-0.9
					c-0.5-0.6-0.7-1.5-0.7-2.8c0-1.2,0.2-2.2,0.7-2.8c0.5-0.6,1.1-0.9,1.9-0.9s1.5,0.3,1.9,0.9s0.7,1.5,0.7,2.8
					C131.9,104.2,131.6,105.1,131.2,105.7z"/>
			</g>
		</g>
	</g>
</g>
</svg>
