<?xml version="1.0" encoding="utf-8"?>
<!-- Generator: Adobe Illustrator 27.5.0, SVG Export Plug-In . SVG Version: 6.00 Build 0)  -->
<svg version="1.1" id="圖層_1" xmlns="http://www.w3.org/2000/svg" xmlns:xlink="http://www.w3.org/1999/xlink" x="0px" y="0px"
	 viewBox="0 0 455.9 123.1" style="enable-background:new 0 0 455.9 123.1;" xml:space="preserve">
<style type="text/css">
	.st0{fill:#0D0D0D;}
</style>
<g>
	<g>
		<path class="st0" d="M11.2,41.9L11.2,41.9c0.5-0.5,0.9-0.9,1.4-1.3c2.4-2.1,5-4,7.8-5.6c0.8-0.4,1.5-0.8,2.3-1.2v-8.7h20.4
			C55.2,25.1,65,34.9,65,47s-9.8,21.9-21.9,21.9c-4.4,0-8,3.6-8,8c0,4.3,3.3,7.8,7.6,8h0.4c4.6,0,9.1-0.8,13.3-2.4
			c1.9-0.7,3.8-1.6,5.6-2.6c2.2-1.2,4.2-2.7,6.1-4.4c1.5-1.3,2.8-2.7,4-4.2c5.6-6.8,8.8-15.3,8.8-24.2c0-20.9-17-37.8-37.9-37.8H8.5
			v35.6C9.3,43.7,10.2,42.8,11.2,41.9z"/>
		<path class="st0" d="M76,80.2c-0.8,0.8-1.6,1.6-2.5,2.4c-2.4,2.1-5,4-7.7,5.6c-0.8,0.5-1.7,1-2.6,1.4V98H43
			c-11.6,0-21.1-9.5-21.1-21.1S31.4,55.8,43,55.8c4.8,0,8.8-3.9,8.8-8.8c0-4.7-3.7-8.5-8.3-8.8c-0.1,0-0.2,0-0.4,0
			c-5.4,0-10.8,1.1-15.7,3.3l-2,1c-0.2,0.1-0.5,0.3-0.8,0.4c-0.2,0.1-0.5,0.3-0.8,0.4l0,0c-1.7,1-3.2,2-4.8,3.3
			c-0.2,0.2-0.5,0.4-0.8,0.6c-0.2,0.2-0.5,0.4-0.7,0.6c-0.1,0.1-0.2,0.2-0.3,0.3s-0.1,0.1-0.2,0.2c-0.1,0.1-0.2,0.1-0.2,0.2
			c-0.1,0.1-0.2,0.1-0.3,0.2l-0.1,0.1c-0.2,0.2-0.3,0.3-0.5,0.5c-0.4,0.4-0.8,0.8-1.1,1.1c-0.2,0.2-0.3,0.4-0.5,0.5l-1.1,1.2
			c-5.7,7.1-8.8,15.8-8.8,24.8c0,21.3,17.3,38.6,38.6,38.6h35.7V77.2c0,0.1-0.1,0.1-0.2,0.2C77.8,78.4,76.9,79.3,76,80.2z"/>
	</g>
	<g>
		<g>
			<path class="st0" d="M109.6,49.1c-0.4-0.3-0.7-0.8-0.9-1.4c-0.1-0.6,0.1-1.4,0.7-2.4l5.5-8.7l5.7,8.9c0.6,0.8,0.8,1.6,0.7,2.2
				c-0.1,0.6-0.3,1.1-0.8,1.5v0.4h13.9v-0.4c-0.4-0.2-0.8-0.5-1.2-0.9c-0.4-0.4-0.9-0.9-1.3-1.6l-11-17.1l9.7-15.3
				c0.4-0.6,0.8-1.1,1.3-1.5c0.5-0.4,0.9-0.7,1.2-0.8v-0.4h-13.1v0.4c0.3,0.2,0.5,0.6,0.7,1.1c0.2,0.6,0.1,1.3-0.4,2.1l-4.9,8
				l-5.1-8.1c-0.5-0.8-0.6-1.4-0.4-2c0.2-0.6,0.4-0.9,0.8-1.1v-0.4H97v0.4c0.3,0.1,0.7,0.4,1.2,0.8c0.5,0.4,0.9,0.9,1.3,1.5
				l9.9,15.5L99,46.2c-0.5,0.8-1,1.4-1.5,1.9c-0.5,0.5-1,0.8-1.3,1v0.4h13.5V49.1z"/>
			<path class="st0" d="M136.4,11.9c0.5,0.5,1,1.2,1.3,2.2c0.3,1,0.4,2.3,0.4,4v24.7c0,1.7-0.1,3.1-0.4,4c-0.3,1-0.7,1.7-1.3,2.2
				v0.4h12.2v-0.4c-0.6-0.5-1-1.2-1.2-2.2c-0.3-1-0.4-2.3-0.4-4V18.2c0-1.7,0.1-3.1,0.4-4c0.3-1,0.7-1.7,1.2-2.2v-0.4h-12.2V11.9z"
				/>
			<path class="st0" d="M162.6,49.1c-0.5-0.3-0.8-0.8-0.9-1.5c-0.1-0.7,0.1-1.6,0.6-2.6l0.3-0.7H179l0.3,0.7c0.5,1,0.7,1.9,0.6,2.6
				c-0.1,0.7-0.4,1.2-0.9,1.6v0.4h13v-0.4c-0.4-0.2-0.8-0.6-1.3-1.2c-0.5-0.6-1-1.4-1.5-2.4l-18-34.9h-0.6L152.9,45
				c-0.6,1.1-1.1,2-1.7,2.7c-0.5,0.7-1,1.1-1.4,1.3v0.4h12.8V49.1z M166.2,37l4.7-9.9l4.7,9.9H166.2z"/>
			<path class="st0" d="M224.8,14.1c0.3-1,0.7-1.7,1.3-2.2v-0.4h-12.2v0.4c0.5,0.5,1,1.2,1.2,2.2c0.3,1,0.4,2.3,0.4,4V26l-10.8-9.1
				c-0.8-0.7-1.3-1.5-1.5-2.4c-0.2-0.9,0-1.7,0.5-2.6v-0.3h-10.5v0.4c0.6,0.5,1.1,1.3,1.4,2.4c0.3,1.1,0.5,2.5,0.5,4.3v24.2
				c0,1.7-0.1,3.1-0.4,4c-0.3,1-0.7,1.7-1.3,2.2v0.4h12.1v-0.4c-0.5-0.5-0.9-1.2-1.2-2.2c-0.3-1-0.4-2.3-0.4-4V26.6l11.7,9.8v6.5
				c0,1.7-0.1,3.1-0.4,4c-0.3,1-0.7,1.7-1.2,2.2v0.4H226v-0.4c-0.6-0.5-1-1.2-1.3-2.2c-0.3-1-0.4-2.3-0.4-4V18.2
				C224.3,16.4,224.5,15.1,224.8,14.1z"/>
			<rect x="228.7" y="32.3" class="st0" width="15.3" height="7"/>
			<path class="st0" d="M267.3,11.9c0.5,0.5,1,1.2,1.2,2.2c0.3,1,0.4,2.3,0.4,4v5.2h-11.7v-5.2c0-1.7,0.1-3.1,0.4-4
				c0.3-1,0.7-1.7,1.2-2.2v-0.4h-12.1v0.4c0.5,0.5,1,1.2,1.3,2.2c0.3,1,0.4,2.3,0.4,4v24.7c0,1.7-0.1,3.1-0.4,4
				c-0.3,1-0.7,1.7-1.3,2.2v0.4h12.1v-0.4c-0.5-0.5-0.9-1.2-1.2-2.2c-0.3-1-0.4-2.3-0.4-4V31.4h11.7v11.4c0,1.7-0.1,3.1-0.4,4
				c-0.3,1-0.7,1.7-1.2,2.2v0.4h12.2v-0.4c-0.6-0.5-1-1.2-1.3-2.2c-0.3-1-0.4-2.3-0.4-4V18.2c0-1.7,0.1-3.1,0.4-4
				c0.3-1,0.7-1.7,1.3-2.2v-0.4h-12.2V11.9z"/>
			<path class="st0" d="M309.9,49.5h13v-0.4c-0.4-0.2-0.8-0.6-1.3-1.2c-0.5-0.6-1-1.4-1.5-2.4l-18-34.9h-0.6L283.8,45
				c-0.6,1.1-1.1,2-1.7,2.7c-0.5,0.7-1,1.1-1.4,1.3v0.4h12.8v-0.4c-0.5-0.3-0.8-0.8-0.9-1.5c-0.1-0.7,0.1-1.6,0.6-2.6l0.3-0.7h16.4
				l0.3,0.7c0.5,1,0.7,1.9,0.6,2.6c-0.1,0.7-0.4,1.2-0.9,1.6V49.5z M306.5,37h-9.4l4.7-9.9L306.5,37z"/>
			<path class="st0" d="M326.8,45c1.8,1.8,4,3.2,6.5,4.1c2.5,1,5.2,1.5,8.3,1.5c3,0,5.8-0.5,8.3-1.5c2.5-1,4.6-2.3,6.5-4.1
				c1.8-1.8,3.3-3.9,4.2-6.4c1-2.5,1.5-5.2,1.5-8.1c0-2.9-0.5-5.6-1.5-8.1c-1-2.5-2.4-4.6-4.2-6.4c-1.8-1.8-4-3.2-6.5-4.1
				c-2.5-1-5.2-1.5-8.3-1.5c-3,0-5.8,0.5-8.3,1.5c-2.5,1-4.7,2.3-6.5,4.1c-1.8,1.8-3.2,3.9-4.2,6.4c-1,2.5-1.5,5.2-1.5,8.1
				c0,2.9,0.5,5.6,1.5,8.1C323.6,41.1,325,43.2,326.8,45z M331.7,24.6c1-1.7,2.3-3,4-4c1.7-1,3.6-1.5,5.8-1.5c2.2,0,4.2,0.5,5.9,1.5
				c1.7,1,3,2.3,4,4c1,1.7,1.4,3.7,1.4,5.9c0,2.2-0.5,4.2-1.4,5.9c-1,1.7-2.3,3.1-4,4s-3.7,1.5-5.9,1.5c-2.2,0-4.1-0.5-5.8-1.5
				c-1.7-1-3-2.3-4-4c-1-1.7-1.5-3.7-1.5-5.9C330.2,28.2,330.7,26.3,331.7,24.6z"/>
		</g>
		<g>
			<path class="st0" d="M111.4,73.3h-8.5c-1.3,1.5-2.5,3.5-3.5,5.9c-1,2.4-1.8,5.1-2.4,8.1c-0.6,2.9-0.9,5.9-0.9,8.9
				c0,3,0.3,5.9,0.9,8.9c0.6,2.9,1.4,5.6,2.4,8.1c1,2.4,2.2,4.4,3.5,5.9h8.5c-2.2-3.8-3.8-7.5-4.8-11.2s-1.5-7.6-1.5-11.6
				c0-4,0.5-7.9,1.5-11.6C107.6,80.8,109.2,77,111.4,73.3z"/>
			<path class="st0" d="M134.9,76.5c0.5,0.5,1,1.2,1.2,2.2c0.3,1,0.4,2.3,0.4,4v5.2h-11.7v-5.2c0-1.7,0.1-3.1,0.4-4
				c0.3-1,0.7-1.7,1.2-2.2V76h-12.1v0.4c0.5,0.5,1,1.2,1.3,2.2c0.3,1,0.4,2.3,0.4,4v24.7c0,1.7-0.1,3.1-0.4,4
				c-0.3,1-0.7,1.7-1.3,2.2v0.4h12.1v-0.4c-0.5-0.5-0.9-1.2-1.2-2.2c-0.3-1-0.4-2.3-0.4-4V96h11.7v11.4c0,1.7-0.1,3.1-0.4,4
				c-0.3,1-0.7,1.7-1.2,2.2v0.4H147v-0.4c-0.6-0.5-1-1.2-1.3-2.2c-0.3-1-0.4-2.3-0.4-4V82.7c0-1.7,0.1-3.1,0.4-4
				c0.3-1,0.7-1.7,1.3-2.2V76h-12.2V76.5z"/>
			<path class="st0" d="M189.2,112.4c-0.5-0.6-1-1.4-1.5-2.4l-18-34.9h-0.6l-17.7,34.4c-0.6,1.1-1.1,2-1.7,2.7
				c-0.5,0.7-1,1.1-1.4,1.3v0.4h12.8v-0.4c-0.5-0.3-0.8-0.8-0.9-1.5c-0.1-0.7,0.1-1.6,0.6-2.6l0.3-0.7h16.4l0.3,0.7
				c0.5,1,0.7,1.9,0.6,2.6c-0.1,0.7-0.4,1.2-0.9,1.6v0.4h13v-0.4C190.1,113.4,189.7,113,189.2,112.4z M174.1,101.5h-9.4l4.7-9.9
				L174.1,101.5z"/>
			<path class="st0" d="M223.3,111.9c-0.7-0.9-1.2-2-1.8-3.2l-4.7-11.5c0.9-0.6,1.8-1.3,2.5-2.1c2.1-2.2,3.1-4.9,3.1-8.1
				c0-3.5-1.1-6.2-3.4-8.2c-2.3-1.9-5.6-2.9-9.8-2.9h-17.5v0.4c0.6,0.5,1,1.2,1.3,2.2c0.3,1,0.5,2.3,0.5,4v24.7c0,1.7-0.1,3.1-0.4,4
				c-0.3,1-0.7,1.7-1.3,2.2v0.4H204v-0.4c-0.6-0.5-1-1.2-1.2-2.2c-0.3-1-0.4-2.3-0.4-4v-4.9l6.8-2l3.3,8.5c0.4,1.2,0.6,2.1,0.4,2.9
				c-0.1,0.8-0.5,1.3-0.9,1.7v0.4h12.9v-0.4C224.5,113.4,223.9,112.8,223.3,111.9z M202.3,94.7v-11h5.7c1.7,0,3,0.3,3.9,1
				c0.9,0.7,1.4,1.6,1.4,2.9c0,1-0.2,1.9-0.7,2.7c-0.5,0.8-1.2,1.4-2.2,2c-1,0.5-2.4,1-4,1.5L202.3,94.7z"/>
			<path class="st0" d="M257.9,111.9c-0.7-0.9-1.2-2-1.8-3.2l-4.7-11.5c0.9-0.6,1.8-1.3,2.5-2.1c2.1-2.2,3.1-4.9,3.1-8.1
				c0-3.5-1.1-6.2-3.4-8.2s-5.6-2.9-9.8-2.9h-17.5v0.4c0.6,0.5,1,1.2,1.3,2.2c0.3,1,0.5,2.3,0.5,4v24.7c0,1.7-0.1,3.1-0.4,4
				c-0.3,1-0.7,1.7-1.3,2.2v0.4h12.2v-0.4c-0.6-0.5-1-1.2-1.2-2.2c-0.3-1-0.4-2.3-0.4-4v-4.9l6.8-2l3.3,8.5c0.4,1.2,0.6,2.1,0.4,2.9
				c-0.1,0.8-0.5,1.3-0.9,1.7v0.4h12.9v-0.4C259.1,113.4,258.6,112.8,257.9,111.9z M237,94.7v-11h5.7c1.7,0,3,0.3,3.9,1
				c0.9,0.7,1.4,1.6,1.4,2.9c0,1-0.2,1.9-0.7,2.7c-0.5,0.8-1.2,1.4-2.2,2c-1,0.5-2.4,1-4,1.5L237,94.7z"/>
			<path class="st0" d="M281.4,76.5c0.4,0.3,0.7,0.7,0.9,1.2c0.2,0.5,0,1.3-0.5,2.2l-5.1,9.4l-5.4-9.3c-0.6-1-0.8-1.7-0.6-2.3
				c0.2-0.6,0.5-1,0.9-1.1V76h-14v0.4c0.5,0.3,1.1,0.7,1.6,1.3c0.5,0.6,1.1,1.3,1.7,2.2l11.3,17.7v9.7c0,1.7-0.1,3.1-0.4,4
				c-0.3,1-0.7,1.7-1.2,2.2v0.4h12.1v-0.4c-0.5-0.5-1-1.2-1.2-2.2c-0.3-1-0.4-2.3-0.4-4v-9.7l11-18.4c0.4-0.7,0.9-1.3,1.4-1.8
				c0.5-0.5,1-0.8,1.4-1V76h-13.4V76.5z"/>
			<path class="st0" d="M307.1,79.2c-1-2.4-2.2-4.4-3.5-5.9h-8.5c2.2,3.7,3.8,7.5,4.8,11.2c1,3.7,1.5,7.6,1.5,11.6
				c0,4-0.5,7.9-1.5,11.6c-1,3.7-2.6,7.5-4.8,11.2h8.5c1.3-1.5,2.5-3.5,3.5-5.9c1-2.4,1.8-5.1,2.4-8.1c0.6-2.9,0.9-5.9,0.9-8.9
				c0-3-0.3-5.9-0.9-8.9C308.9,84.3,308.1,81.6,307.1,79.2z"/>
			<path class="st0" d="M349.9,105.5c-1,0.3-2.3,0.4-4.1,0.4h-10.2V82.7c0-1.8,0.2-3.2,0.5-4.1c0.3-1,0.8-1.7,1.4-2.1V76h-12.4v0.4
				c0.5,0.5,1,1.2,1.3,2.2c0.3,1,0.4,2.3,0.4,4v24.7c0,1.7-0.2,3.1-0.5,4c-0.3,1-0.8,1.7-1.3,2.2v0.4h22.7c0.9,0,1.7,0,2.6,0.1
				c0.8,0.1,1.6,0.2,2.2,0.4v-10.3H352C351.6,104.8,350.9,105.2,349.9,105.5z"/>
			<path class="st0" d="M355.4,76.5c0.5,0.5,1,1.2,1.3,2.2c0.3,1,0.4,2.3,0.4,4v24.7c0,1.7-0.1,3.1-0.4,4c-0.3,1-0.7,1.7-1.3,2.2
				v0.4h12.2v-0.4c-0.6-0.5-1-1.2-1.2-2.2c-0.3-1-0.4-2.3-0.4-4V82.7c0-1.7,0.1-3.1,0.4-4c0.3-1,0.7-1.7,1.2-2.2V76h-12.2V76.5z"/>
			<path class="st0" d="M409.8,112.4c-0.5-0.6-1-1.4-1.5-2.4l-18-34.9h-0.6L372,109.5c-0.6,1.1-1.1,2-1.7,2.7
				c-0.5,0.7-1,1.1-1.4,1.3v0.4h12.8v-0.4c-0.5-0.3-0.8-0.8-0.9-1.5c-0.1-0.7,0.1-1.6,0.6-2.6l0.3-0.7h16.4l0.3,0.7
				c0.5,1,0.7,1.9,0.6,2.6c-0.1,0.7-0.4,1.2-0.9,1.6v0.4h13v-0.4C410.7,113.4,410.3,113,409.8,112.4z M394.6,101.5h-9.4l4.7-9.9
				L394.6,101.5z"/>
			<path class="st0" d="M448.7,86.9c-1-2.5-2.4-4.6-4.2-6.4c-1.8-1.8-4-3.2-6.5-4.1c-2.5-1-5.2-1.5-8.3-1.5c-3,0-5.8,0.5-8.3,1.5
				c-2.5,1-4.7,2.3-6.5,4.1c-1.8,1.8-3.2,3.9-4.2,6.4c-1,2.5-1.5,5.2-1.5,8.1c0,2.9,0.5,5.6,1.5,8.1c1,2.5,2.4,4.6,4.2,6.4
				c1.8,1.8,4,3.2,6.5,4.1c2.5,1,5.2,1.5,8.3,1.5c3,0,5.8-0.5,8.3-1.5c2.5-1,4.6-2.4,6.5-4.1c1.8-1.8,3.3-3.9,4.2-6.4
				c1-2.5,1.5-5.2,1.5-8.1C450.2,92.1,449.7,89.4,448.7,86.9z M439.5,101c-1,1.7-2.3,3.1-4,4c-1.7,1-3.7,1.5-5.9,1.5
				c-2.2,0-4.1-0.5-5.8-1.5c-1.7-1-3-2.3-4-4c-1-1.7-1.5-3.7-1.5-5.9c0-2.3,0.5-4.3,1.5-6c1-1.7,2.3-3,4-4c1.7-1,3.6-1.5,5.8-1.5
				c2.2,0,4.2,0.5,5.9,1.5c1.7,1,3,2.3,4,4c1,1.7,1.4,3.7,1.4,6C441,97.3,440.5,99.2,439.5,101z"/>
		</g>
	</g>
</g>
</svg>
