<?xml version="1.0" encoding="utf-8"?>
<!-- Generator: Adobe Illustrator 23.0.0, SVG Export Plug-In . SVG Version: 6.00 Build 0)  -->
<svg version="1.1" id="圖層_1" xmlns="http://www.w3.org/2000/svg" xmlns:xlink="http://www.w3.org/1999/xlink" x="0px" y="0px"
	 viewBox="0 0 139.6 130.8" style="enable-background:new 0 0 139.6 130.8;" xml:space="preserve">
<style type="text/css">
	.st0{fill:#0D0D0D;}
</style>
<title>C-CUBE</title>
<g>
	<g>
		<path class="st0" d="M22.2,121.8v-1.1h4.7v-1.3h-4.3v-6.3h10.1v6.3h-4.4v1.3h4.7v1.1h-4.7v1.3h5.4v1.1H21.5v-1.1h5.4v-1.3H22.2z
			 M23.8,114.3v1.5h3v-1.5H23.8z M23.8,116.9v1.5h3v-1.5H23.8z M31.2,114.3h-3v1.5h3V114.3z M28.2,116.9v1.5h3v-1.5H28.2z"/>
		<path class="st0" d="M48,115.2v-1.2h1.8c-0.1-0.4-0.3-0.8-0.5-1.2l1.3-0.3c0.2,0.4,0.4,0.9,0.6,1.5h1.3v1.2H48z M48.4,117.1v-1
			h3.7v1H48.4z M48.4,119.1v-1h3.7v1H48.4z M48.4,124.6v-4.6h3.7v4.5H51v-0.7h-1.6v0.7H48.4z M49.5,121.2v1.8H51v-1.8H49.5z
			 M52.7,118.4v-1.2h2.5c0.2-0.4,0.4-0.8,0.6-1.2l1.3,0.2c-0.1,0.4-0.3,0.7-0.5,1h3.6v1.2H56c-0.3,0.5-0.6,0.9-1,1.3h4.5v5h-1.3V124
			H55v0.8h-1.2V121c-0.3,0.3-0.7,0.6-1.1,0.9c-0.1-0.1-0.2-0.4-0.4-0.7c-0.1-0.2-0.2-0.3-0.2-0.4c1-0.7,1.8-1.5,2.4-2.4H52.7z
			 M57.5,116.5v-1.3h-2.1v1.2h-1.2v-1.2h-1.4v-1.1h1.4v-1.5h1.2v1.5h2.1v-1.5h1.3v1.5h1.4v1.1h-1.4v1.3H57.5z M55,120.8v2.1h3.2
			v-2.1H55z"/>
		<path class="st0" d="M71.8,117.9v1.8H70v-1.8H71.8z"/>
		<path class="st0" d="M81.6,117.7l-0.2-1.3l3.6-0.5c-0.1-1-0.2-2.1-0.3-3.3h1.5c0.1,1.1,0.1,2.2,0.3,3.1l3.4-0.4
			c-0.6-0.5-1.3-1-2.2-1.7l0.9-0.9c0.8,0.5,1.6,1,2.3,1.6l-0.9,1.1l3.1-0.4l0.2,1.3l-6.5,0.8c0.3,1.4,0.6,2.5,0.9,3.2
			c1.3-0.9,2.4-1.9,3.3-3.1l1.1,0.9c-1.2,1.4-2.5,2.6-3.8,3.4c0.3,0.3,0.6,0.7,0.9,1c0.5,0.5,1,0.8,1.6,0.8c0.5,0,0.9-0.3,1.1-0.9
			c0.2-0.5,0.4-1,0.5-1.6c0.6,0.3,1,0.5,1.3,0.6c-0.1,0.5-0.3,1.1-0.6,1.8c-0.4,0.9-1.1,1.4-2.1,1.4c-0.9,0-1.7-0.4-2.5-1.1
			c-0.4-0.3-0.8-0.8-1.2-1.3c-1.1,0.6-2.8,1.3-4.9,2c0-0.1-0.1-0.3-0.3-0.5c-0.2-0.3-0.4-0.6-0.5-0.8c1.9-0.6,3.6-1.2,5-2
			c-0.5-1-0.9-2.3-1.1-3.7L81.6,117.7z"/>
		<path class="st0" d="M118.9,119.1c-0.1,0-0.2-0.1-0.4-0.2c-0.3-0.1-0.6-0.3-1-0.5v3.3H109v-3.2c-0.1,0.1-0.3,0.2-0.5,0.3
			c-0.1,0.1-0.5,0.3-1,0.6c0-0.1-0.1-0.2-0.2-0.3c0-0.2-0.2-0.5-0.4-0.9c0.8-0.4,1.6-0.8,2.2-1.3c-0.3-0.3-0.7-0.6-1.3-1.1
			c-0.1-0.1-0.2-0.2-0.3-0.2l0.8-0.8c0.1,0.1,0.3,0.2,0.5,0.4c0.5,0.3,0.9,0.6,1.2,0.9c0.5-0.5,0.9-1.1,1.3-1.7h-3.7v-1.1h5v1.2
			c-0.3,0.6-0.7,1.2-1.2,1.8h3.4c-0.7-0.9-1.3-2.1-1.8-3.4l1.3-0.2c0.1,0.5,0.3,0.9,0.6,1.3c0.7-0.4,1.4-0.8,2.1-1.3l0.8,0.9
			c-0.3,0.2-0.7,0.4-1.2,0.7c-0.5,0.3-0.9,0.5-1.2,0.7c0.1,0.1,0.3,0.4,0.5,0.7c0,0,0.1,0.1,0.1,0.1c0,0,0.1-0.1,0.2-0.1
			c0.9-0.5,1.6-1,2.1-1.4l0.8,0.9c-0.6,0.4-1.3,0.8-2.2,1.3c0.6,0.5,1.4,0.9,2.4,1.3c-0.1,0.2-0.3,0.5-0.5,1
			C119,119,118.9,119,118.9,119.1z M107.3,124.3v-1.1h3.5c-0.3-0.4-0.7-0.7-1.1-1.1l1.2-0.5c0.5,0.4,0.9,0.9,1.4,1.4l-0.4,0.1h2.1
			c0.3-0.2,0.7-0.7,1.3-1.4c0.1,0,0.1-0.1,0.1-0.1l1.3,0.5l-1.1,1.1h3.6v1.1H107.3z M111,117.3v-0.4c-0.3,0.4-0.9,0.8-1.7,1.4h8
			c-0.7-0.4-1.3-0.9-1.8-1.4v0.4H111z M110.3,119.3v1.3h5.9v-1.3H110.3z"/>
	</g>
	<g>
		<path class="st0" d="M57.9,16.4C57.9,16.4,57.9,16.4,57.9,16.4c0.2-0.2,0.4-0.3,0.5-0.5c0.9-0.8,1.9-1.5,2.9-2.1
			c0.3-0.2,0.6-0.3,0.9-0.5V10h7.7c4.6,0,8.3,3.7,8.3,8.3c0,4.6-3.7,8.3-8.3,8.3c-1.7,0-3,1.4-3,3c0,1.6,1.3,2.9,2.9,3h0.1
			c1.7,0,3.4-0.3,5-0.9c0.7-0.3,1.4-0.6,2.1-1c0.8-0.5,1.6-1,2.3-1.7c0.5-0.5,1.1-1,1.5-1.6c2.1-2.5,3.3-5.8,3.3-9.1
			C84.2,10.4,77.8,4,69.9,4h-13v13.4C57.2,17.1,57.6,16.7,57.9,16.4z"/>
		<path class="st0" d="M82.4,30.8c-0.3,0.3-0.6,0.6-0.9,0.9c-0.9,0.8-1.9,1.5-2.9,2.1c-0.3,0.2-0.7,0.4-1,0.5v3.2h-7.6
			c-4.4,0-8-3.6-8-8c0-4.4,3.6-8,8-8c1.8,0,3.3-1.5,3.3-3.3c0-1.8-1.4-3.2-3.1-3.3c0,0-0.1,0-0.2,0c-2,0-4.1,0.4-5.9,1.3l-0.8,0.4
			c-0.1,0-0.2,0.1-0.3,0.2c-0.1,0.1-0.2,0.1-0.3,0.2c0,0,0,0,0,0c-0.6,0.4-1.2,0.8-1.8,1.2c-0.1,0.1-0.2,0.1-0.3,0.2
			c-0.1,0.1-0.2,0.2-0.3,0.2c0,0-0.1,0.1-0.1,0.1c0,0-0.1,0-0.1,0.1c0,0-0.1,0.1-0.1,0.1c0,0-0.1,0.1-0.1,0.1c0,0,0,0,0,0
			c-0.1,0.1-0.1,0.1-0.2,0.2c-0.1,0.1-0.3,0.3-0.4,0.4c-0.1,0.1-0.1,0.1-0.2,0.2l-0.4,0.5c-2.1,2.6-3.3,5.9-3.3,9.2
			c0,8,6.5,14.6,14.6,14.6h13.5V29.7c0,0,0,0-0.1,0.1C83.1,30.1,82.8,30.5,82.4,30.8z"/>
	</g>
	<g>
		<g>
			<path class="st0" d="M42.7,75.3l-4.3-7.6h-2.8v7.6h-5.1V54.1h8.1c4.8,0,8.7,1.6,8.7,6.6c0,3.1-1.6,5.1-4,6.1l5.1,8.5H42.7z
				 M35.6,63.8h2.6c2.7,0,4.1-1.1,4.1-3.2c0-2.1-1.5-2.8-4.1-2.8h-2.6V63.8z"/>
			<path class="st0" d="M51.3,54.1h14.2v4h-9v4.3h7.7v4h-7.7v4.9h9.4v4H51.3V54.1z"/>
			<path class="st0" d="M69.4,54.1h5.2l5.9,10.5l2.2,4.7h0.1c-0.2-2.2-0.7-5.2-0.7-7.7v-7.5h4.8v21.2h-5.2l-5.9-10.6l-2.2-4.6h-0.1
				c0.2,2.3,0.7,5.2,0.7,7.7v7.5h-4.9V54.1z"/>
			<path class="st0" d="M90.8,64.6c0-6.9,4.2-10.9,10.2-10.9c6.1,0,10.2,4,10.2,10.9c0,6.9-4.2,11.1-10.2,11.1
				C94.9,75.7,90.8,71.5,90.8,64.6z M106,64.6c0-4.2-1.9-6.8-5-6.8c-3,0-5,2.5-5,6.8c0,4.3,2,7,5,7C104.1,71.5,106,68.8,106,64.6z"
				/>
		</g>
		<g>
			<path class="st0" d="M17.6,82.1c3.2,0,5.5,1.3,7,2.8l-2.8,3c-1.1-1-2.2-1.6-4.2-1.6c-3.5,0-6,2.6-6,6.8c0,4.4,2.1,6.9,6.4,6.9
				c0.9,0,1.8-0.2,2.4-0.6v-3.6h-3.7v-3.9h8.3v9.8c-1.6,1.3-4.4,2.6-7.6,2.6c-6.1,0-10.9-3.7-10.9-10.9
				C6.5,86.2,11.5,82.1,17.6,82.1z"/>
			<path class="st0" d="M28.6,93c0-6.9,4.2-10.9,10.2-10.9c6.1,0,10.2,4,10.2,10.9c0,6.9-4.2,11.1-10.2,11.1
				C32.7,104.1,28.6,100,28.6,93z M43.8,93c0-4.2-1.9-6.8-5-6.8c-3,0-5,2.5-5,6.8c0,4.3,2,7,5,7C41.9,100,43.8,97.3,43.8,93z"/>
			<path class="st0" d="M64.4,103.7l-4.3-7.6h-2.8v7.6h-5.1V82.5h8.1c4.8,0,8.7,1.6,8.7,6.6c0,3.1-1.6,5.1-4,6.1l5.1,8.5H64.4z
				 M57.3,92.3h2.6c2.7,0,4.1-1.1,4.1-3.2c0-2.1-1.5-2.8-4.1-2.8h-2.6V92.3z"/>
			<path class="st0" d="M73,82.5h6.4c6.9,0,11.4,3.2,11.4,10.5c0,7.3-4.4,10.7-11,10.7H73V82.5z M79.1,99.9c3.8,0,6.4-1.8,6.4-6.8
				c0-5.1-2.6-6.6-6.4-6.6h-1v13.5H79.1z"/>
			<path class="st0" d="M93.3,93c0-6.9,4.2-10.9,10.2-10.9c6.1,0,10.2,4,10.2,10.9c0,6.9-4.2,11.1-10.2,11.1
				C97.5,104.1,93.3,100,93.3,93z M108.6,93c0-4.2-1.9-6.8-5-6.8c-3,0-5,2.5-5,6.8c0,4.3,2,7,5,7C106.6,100,108.6,97.3,108.6,93z"/>
			<path class="st0" d="M116.7,82.5h5.2l5.9,10.5l2.2,4.7h0.1c-0.2-2.2-0.7-5.2-0.7-7.7v-7.5h4.8v21.2h-5.2l-5.9-10.6l-2.2-4.6h-0.1
				c0.2,2.3,0.7,5.2,0.7,7.7v7.5h-4.9V82.5z"/>
		</g>
	</g>
</g>
</svg>
