<?xml version="1.0" encoding="utf-8"?>
<!-- Generator: Adobe Illustrator 23.0.0, SVG Export Plug-In . SVG Version: 6.00 Build 0)  -->
<svg version="1.1" id="圖層_1" xmlns="http://www.w3.org/2000/svg" xmlns:xlink="http://www.w3.org/1999/xlink" x="0px" y="0px"
	 viewBox="0 0 162.1 142.6" style="enable-background:new 0 0 162.1 142.6;" xml:space="preserve">
<style type="text/css">
	.st0{fill:#FFFFFF;}
</style>
<title>C-CUBE-CN-white</title>
<g>
	<g>
		<path class="st0" d="M26.1,135.9v-1.2h5.2v-1.4h-4.9v-7h11.3v7h-4.9v1.4h5.3v1.2h-5.3v1.4h6.1v1.2H25.3v-1.2h6v-1.4H26.1z
			 M27.9,127.5v1.6h3.3v-1.6H27.9z M27.9,130.4v1.6h3.3v-1.6H27.9z M36.2,127.5h-3.4v1.6h3.4V127.5z M32.8,130.4v1.6h3.4v-1.6H32.8z
			"/>
		<path class="st0" d="M55,128.5v-1.3h2c-0.2-0.5-0.3-0.9-0.6-1.4l1.4-0.3c0.2,0.5,0.4,1,0.6,1.6H60v1.3H55z M55.5,130.7v-1.1h4.1
			v1.1H55.5z M55.5,132.9v-1.1h4.1v1.1H55.5z M55.5,139.1V134h4.1v5h-1.2v-0.7h-1.8v0.8H55.5z M56.7,135.2v2h1.8v-2H56.7z
			 M60.4,132.1v-1.3h2.8c0.2-0.4,0.4-0.9,0.6-1.3l1.4,0.2c-0.2,0.4-0.3,0.8-0.6,1.1h4.1v1.3H64c-0.3,0.5-0.7,1-1.1,1.5h5v5.6h-1.4
			v-0.8h-3.6v0.8h-1.4V135c-0.4,0.3-0.8,0.7-1.2,1c-0.1-0.1-0.2-0.4-0.5-0.8c-0.1-0.2-0.2-0.3-0.2-0.4c1.1-0.8,2-1.7,2.7-2.7H60.4z
			 M65.7,129.9v-1.4h-2.3v1.4H62v-1.4h-1.6v-1.2H62v-1.6h1.4v1.6h2.3v-1.6h1.4v1.6h1.6v1.2h-1.6v1.4H65.7z M62.9,134.8v2.4h3.6v-2.4
			H62.9z"/>
		<path class="st0" d="M81.7,131.5v2h-1.9v-2H81.7z"/>
		<path class="st0" d="M92.8,131.2l-0.2-1.4l4.1-0.5c-0.2-1.1-0.3-2.4-0.3-3.7h1.6c0.1,1.2,0.2,2.4,0.3,3.5l3.8-0.4
			c-0.6-0.5-1.5-1.2-2.5-1.9l1-1c0.9,0.6,1.8,1.2,2.6,1.8l-1,1.2l3.5-0.4l0.2,1.4l-7.3,0.8c0.3,1.6,0.6,2.8,1,3.6
			c1.5-1,2.7-2.2,3.7-3.5l1.3,1c-1.4,1.6-2.8,2.9-4.3,3.8c0.3,0.4,0.6,0.7,1,1.1c0.6,0.6,1.2,0.9,1.8,0.9c0.6,0,1-0.3,1.2-1
			c0.2-0.6,0.4-1.2,0.5-1.8c0.7,0.3,1.2,0.6,1.5,0.7c-0.1,0.5-0.3,1.2-0.7,2c-0.5,1.1-1.2,1.6-2.3,1.5c-1,0-1.9-0.4-2.8-1.2
			c-0.5-0.4-0.9-0.9-1.4-1.5c-1.3,0.7-3.1,1.5-5.5,2.2c0-0.1-0.1-0.3-0.3-0.5c-0.2-0.4-0.4-0.7-0.5-0.9c2.2-0.6,4-1.4,5.6-2.2
			c-0.6-1.1-1-2.5-1.2-4.2L92.8,131.2z"/>
		<path class="st0" d="M134.6,132.8c-0.1,0-0.2-0.1-0.4-0.2c-0.3-0.1-0.7-0.3-1.1-0.6v3.7h-9.6v-3.6c-0.1,0.1-0.3,0.2-0.5,0.3
			c-0.2,0.1-0.5,0.3-1.1,0.6c0-0.1-0.1-0.2-0.2-0.3c0-0.2-0.2-0.5-0.4-1c0.9-0.4,1.7-0.9,2.5-1.4c-0.3-0.3-0.8-0.7-1.5-1.2
			c-0.1-0.1-0.2-0.2-0.3-0.2l0.9-0.9c0.2,0.1,0.3,0.3,0.6,0.5c0.6,0.4,1,0.7,1.3,1c0.6-0.6,1.1-1.2,1.5-1.9h-4.1v-1.2h5.6v1.4
			c-0.4,0.7-0.8,1.4-1.4,2h3.9c-0.8-1-1.5-2.3-2-3.9l1.4-0.2c0.2,0.5,0.4,1,0.6,1.5c0.8-0.5,1.6-0.9,2.3-1.5l0.9,1
			c-0.3,0.2-0.7,0.5-1.3,0.8c-0.6,0.3-1,0.6-1.3,0.8c0.1,0.2,0.3,0.4,0.6,0.8c0,0,0.1,0.1,0.1,0.1c0,0,0.1-0.1,0.2-0.1
			c1-0.6,1.8-1.1,2.3-1.5l0.9,1c-0.7,0.5-1.5,0.9-2.4,1.5c0.7,0.6,1.6,1,2.7,1.4c-0.1,0.2-0.3,0.6-0.5,1.1
			C134.6,132.7,134.6,132.8,134.6,132.8z M121.6,138.7v-1.2h4c-0.4-0.4-0.8-0.8-1.2-1.2l1.4-0.5c0.5,0.5,1,1,1.5,1.6l-0.5,0.1h2.3
			c0.3-0.3,0.8-0.8,1.4-1.6c0.1,0,0.1-0.1,0.1-0.1l1.4,0.5l-1.2,1.2h4.1v1.2H121.6z M125.7,130.8v-0.5c-0.4,0.4-1,0.9-1.9,1.5h9
			c-0.8-0.5-1.4-1-2-1.5v0.5H125.7z M124.9,133.1v1.5h6.6v-1.5H124.9z"/>
	</g>
	<g>
		<path class="st0" d="M66.2,17.7C66.2,17.7,66.2,17.7,66.2,17.7c0.2-0.2,0.4-0.4,0.6-0.5c1-0.9,2.1-1.7,3.3-2.4
			c0.3-0.2,0.6-0.4,1-0.5v-3.7h8.6c5.1,0,9.3,4.2,9.3,9.3c0,5.1-4.2,9.3-9.3,9.3c-1.9,0-3.4,1.5-3.4,3.4c0,1.8,1.4,3.3,3.2,3.4h0.2
			c1.9,0,3.9-0.4,5.6-1c0.8-0.3,1.6-0.7,2.4-1.1c0.9-0.5,1.8-1.2,2.6-1.9c0.6-0.5,1.2-1.1,1.7-1.8c2.4-2.9,3.7-6.5,3.7-10.2
			c0-8.8-7.2-16-16-16H65v15C65.4,18.4,65.8,18,66.2,17.7z"/>
		<path class="st0" d="M93.6,33.9c-0.3,0.3-0.7,0.7-1,1c-1,0.9-2.1,1.7-3.3,2.3c-0.4,0.2-0.7,0.4-1.1,0.6v3.6h-8.6
			c-4.9,0-8.9-4-8.9-8.9c0-4.9,4-8.9,8.9-8.9c2,0,3.7-1.7,3.7-3.7c0-2-1.5-3.6-3.5-3.7c0,0-0.1,0-0.2,0c-2.3,0-4.6,0.5-6.6,1.4
			l-0.8,0.4C72.1,18,72,18,71.8,18.1c-0.1,0.1-0.2,0.1-0.3,0.2c0,0,0,0,0,0c-0.7,0.4-1.4,0.9-2,1.4c-0.1,0.1-0.2,0.2-0.3,0.3
			c-0.1,0.1-0.2,0.2-0.3,0.3c0,0-0.1,0.1-0.1,0.1c0,0-0.1,0.1-0.1,0.1c0,0-0.1,0.1-0.1,0.1c0,0-0.1,0.1-0.1,0.1c0,0,0,0,0,0
			c-0.1,0.1-0.1,0.1-0.2,0.2c-0.2,0.2-0.3,0.3-0.5,0.5c-0.1,0.1-0.1,0.2-0.2,0.2L67,22.1c-2.4,2.9-3.7,6.6-3.7,10.4
			c0,9,7.3,16.3,16.3,16.3h15.1V32.6c0,0,0,0.1-0.1,0.1C94.4,33.1,94,33.5,93.6,33.9z"/>
	</g>
	<g>
		<g>
			<path class="st0" d="M49.7,83.8l-4.8-8.4h-3.1v8.4h-5.6V60.5h9c5.3,0,9.6,1.7,9.6,7.3c0,3.4-1.8,5.6-4.4,6.7l5.6,9.3H49.7z
				 M41.9,71.2h2.9c2.9,0,4.5-1.2,4.5-3.5c0-2.3-1.6-3.1-4.5-3.1h-2.9V71.2z"/>
			<path class="st0" d="M59.1,60.5h15.6v4.4h-9.9v4.7h8.5V74h-8.5v5.4h10.3v4.4h-16V60.5z"/>
			<path class="st0" d="M79,60.5h5.8l6.5,11.6l2.5,5.2h0.2c-0.3-2.5-0.7-5.8-0.7-8.5v-8.2h5.3v23.3h-5.8l-6.5-11.6l-2.4-5.1h-0.2
				c0.3,2.6,0.7,5.7,0.7,8.5v8.3H79V60.5z"/>
			<path class="st0" d="M102.6,72c0-7.6,4.6-12,11.3-12c6.7,0,11.3,4.4,11.3,12c0,7.6-4.6,12.2-11.3,12.2
				C107.2,84.2,102.6,79.6,102.6,72z M119.4,72c0-4.7-2.1-7.4-5.5-7.4c-3.4,0-5.5,2.8-5.5,7.4c0,4.7,2.2,7.7,5.5,7.7
				C117.2,79.7,119.4,76.7,119.4,72z"/>
		</g>
		<g>
			<path class="st0" d="M22.1,91.3c3.5,0,6.1,1.5,7.7,3l-3.1,3.3c-1.3-1.1-2.4-1.8-4.6-1.8c-3.8,0-6.6,2.8-6.6,7.5
				c0,4.8,2.3,7.6,7,7.6c1,0,2-0.2,2.6-0.7v-4h-4.1V102h9.1v10.7c-1.8,1.5-4.9,2.8-8.3,2.8c-6.7,0-12-4.1-12-12
				C9.9,95.9,15.3,91.3,22.1,91.3z"/>
			<path class="st0" d="M34.1,103.3c0-7.6,4.6-12,11.3-12c6.7,0,11.3,4.4,11.3,12c0,7.6-4.6,12.2-11.3,12.2
				C38.7,115.6,34.1,111,34.1,103.3z M50.9,103.3c0-4.7-2.1-7.4-5.5-7.4c-3.4,0-5.5,2.8-5.5,7.4c0,4.7,2.2,7.7,5.5,7.7
				C48.8,111,50.9,108,50.9,103.3z"/>
			<path class="st0" d="M73.6,115.1l-4.8-8.4h-3v8.4h-5.6V91.8h9c5.3,0,9.6,1.7,9.6,7.3c0,3.4-1.8,5.6-4.4,6.7l5.6,9.3H73.6z
				 M65.8,102.5h2.9c2.9,0,4.5-1.2,4.5-3.5c0-2.3-1.6-3.1-4.5-3.1h-2.9V102.5z"/>
			<path class="st0" d="M83,91.8h7c7.6,0,12.5,3.5,12.5,11.6c0,8-4.9,11.8-12.2,11.8H83V91.8z M89.7,110.9c4.2,0,7-1.9,7-7.5
				c0-5.6-2.9-7.3-7-7.3h-1.1v14.8H89.7z"/>
			<path class="st0" d="M105.4,103.3c0-7.6,4.6-12,11.3-12c6.7,0,11.3,4.4,11.3,12c0,7.6-4.6,12.2-11.3,12.2
				C110,115.6,105.4,111,105.4,103.3z M122.2,103.3c0-4.7-2.1-7.4-5.5-7.4c-3.4,0-5.5,2.8-5.5,7.4c0,4.7,2.2,7.7,5.5,7.7
				C120.1,111,122.2,108,122.2,103.3z"/>
			<path class="st0" d="M131.1,91.8h5.8l6.5,11.6l2.5,5.2h0.2c-0.3-2.5-0.7-5.8-0.7-8.5v-8.2h5.3v23.3h-5.8l-6.5-11.6l-2.4-5.1h-0.2
				c0.3,2.6,0.7,5.7,0.7,8.5v8.3h-5.4V91.8z"/>
		</g>
	</g>
</g>
</svg>
