<?xml version="1.0" encoding="utf-8"?>
<!-- Generator: Adobe Illustrator 23.0.0, SVG Export Plug-In . SVG Version: 6.00 Build 0)  -->
<svg version="1.1" id="圖層_1" xmlns="http://www.w3.org/2000/svg" xmlns:xlink="http://www.w3.org/1999/xlink" x="0px" y="0px"
	 viewBox="0 0 58.7 55" style="enable-background:new 0 0 58.7 55;" xml:space="preserve">
<style type="text/css">
	.st0{fill:#FFFFFF;}
</style>
<title>C-CUBE</title>
<g>
	<path class="st0" d="M14.8,18.1C14.8,18.1,14.8,18.1,14.8,18.1c0.2-0.2,0.4-0.4,0.6-0.6c1.1-1,2.3-1.9,3.6-2.6
		c0.3-0.2,0.7-0.4,1-0.6v-4h9.4c5.6,0,10.1,4.5,10.1,10.1c0,5.6-4.5,10.1-10.1,10.1c-2,0-3.7,1.7-3.7,3.7c0,2,1.5,3.6,3.5,3.7h0.2
		c2.1,0,4.2-0.4,6.2-1.1c0.9-0.3,1.8-0.7,2.6-1.2c1-0.6,2-1.3,2.8-2c0.7-0.6,1.3-1.2,1.9-1.9c2.6-3.1,4.1-7.1,4.1-11.2
		c0-9.7-7.9-17.5-17.5-17.5h-16v16.4C13.9,18.9,14.4,18.5,14.8,18.1z"/>
	<path class="st0" d="M44.8,35.8c-0.4,0.4-0.7,0.7-1.1,1.1c-1.1,1-2.3,1.9-3.6,2.6c-0.4,0.2-0.8,0.4-1.2,0.6V44h-9.3
		c-5.4,0-9.8-4.4-9.8-9.8c0-5.4,4.4-9.8,9.8-9.8c2.2,0,4.1-1.8,4.1-4.1c0-2.2-1.7-3.9-3.9-4c-0.1,0-0.1,0-0.2,0
		c-2.5,0-5,0.5-7.3,1.5l-0.9,0.4c-0.1,0.1-0.2,0.1-0.4,0.2c-0.1,0.1-0.2,0.1-0.4,0.2c0,0,0,0,0,0c-0.8,0.4-1.5,0.9-2.2,1.5
		c-0.1,0.1-0.2,0.2-0.3,0.3c-0.1,0.1-0.2,0.2-0.3,0.3c0,0-0.1,0.1-0.1,0.1c0,0-0.1,0.1-0.1,0.1c0,0-0.1,0.1-0.1,0.1
		c0,0-0.1,0.1-0.1,0.1c0,0,0,0,0,0.1c-0.1,0.1-0.2,0.2-0.2,0.2c-0.2,0.2-0.4,0.4-0.5,0.5c-0.1,0.1-0.2,0.2-0.2,0.3l-0.5,0.6
		c-2.6,3.2-4.1,7.2-4.1,11.3c0,9.9,8,17.9,17.9,17.9h16.5V34.4c0,0,0,0.1-0.1,0.1C45.6,34.9,45.2,35.4,44.8,35.8z"/>
</g>
</svg>
