<?xml version="1.0" encoding="utf-8"?>
<!-- Generator: Adobe Illustrator 27.5.0, SVG Export Plug-In . SVG Version: 6.00 Build 0)  -->
<svg version="1.1" id="圖層_1" xmlns="http://www.w3.org/2000/svg" xmlns:xlink="http://www.w3.org/1999/xlink" x="0px" y="0px"
	 viewBox="0 0 522.6 123.1" style="enable-background:new 0 0 522.6 123.1;" xml:space="preserve">
<style type="text/css">
	.st0{fill:#0D0D0D;}
</style>
<g>
	<g>
		<path class="st0" d="M11.2,41.9L11.2,41.9c0.5-0.5,0.9-0.9,1.4-1.3c2.4-2.1,5-4,7.8-5.6c0.8-0.4,1.5-0.8,2.3-1.2v-8.7h20.4
			C55.2,25.1,65,34.9,65,47s-9.8,21.9-21.9,21.9c-4.4,0-8,3.6-8,8c0,4.3,3.3,7.8,7.6,8h0.4c4.6,0,9.1-0.8,13.3-2.4
			c1.9-0.7,3.8-1.6,5.6-2.6c2.2-1.2,4.2-2.7,6.1-4.4c1.5-1.3,2.8-2.7,4-4.2c5.6-6.8,8.8-15.3,8.8-24.2c0-20.9-17-37.8-37.9-37.8H8.5
			v35.6C9.3,43.7,10.2,42.8,11.2,41.9z"/>
		<path class="st0" d="M76,80.2c-0.8,0.8-1.6,1.6-2.5,2.4c-2.4,2.1-5,4-7.7,5.6c-0.8,0.5-1.7,1-2.6,1.4V98H43
			c-11.6,0-21.1-9.5-21.1-21.1S31.4,55.8,43,55.8c4.8,0,8.8-3.9,8.8-8.8c0-4.7-3.7-8.5-8.3-8.8c-0.1,0-0.2,0-0.4,0
			c-5.4,0-10.8,1.1-15.7,3.3l-2,1c-0.2,0.1-0.5,0.3-0.8,0.4c-0.2,0.1-0.5,0.3-0.8,0.4l0,0c-1.7,1-3.2,2-4.8,3.3
			c-0.2,0.2-0.5,0.4-0.8,0.6c-0.2,0.2-0.5,0.4-0.7,0.6c-0.1,0.1-0.2,0.2-0.3,0.3s-0.1,0.1-0.2,0.2c-0.1,0.1-0.2,0.1-0.2,0.2
			c-0.1,0.1-0.2,0.1-0.3,0.2l-0.1,0.1c-0.2,0.2-0.3,0.3-0.5,0.5c-0.4,0.4-0.8,0.8-1.1,1.1c-0.2,0.2-0.3,0.4-0.5,0.5l-1.1,1.2
			c-5.7,7.1-8.8,15.8-8.8,24.8c0,21.3,17.3,38.6,38.6,38.6h35.7V77.2c0,0.1-0.1,0.1-0.2,0.2C77.8,78.4,76.9,79.3,76,80.2z"/>
	</g>
	<g>
		<polygon points="144.4,56.8 129.4,32.6 143.8,9.3 127.7,9.3 121.3,19.5 115.1,9.3 98.9,9.3 113.3,32.6 98.4,56.8 114.5,56.8 
			121.3,45.7 128.2,56.8 		"/>
		<rect x="148" y="9.3" width="13.8" height="47.5"/>
		<path d="M179.4,9.3l-14.1,47.5h14.4l1.5-6.1h11.3l1.5,6.1h14.4L194.3,9.3H179.4z M184.3,38.4l2.6-10.2l2.6,10.2H184.3z"/>
		<polygon points="224.6,31.4 237.1,56.8 250.4,56.8 250.4,9.3 237.3,9.3 237.3,32.1 226,9.3 211.6,9.3 211.6,56.8 224.6,56.8 		"/>
		<rect x="255" y="27.3" width="31.6" height="11.9"/>
		<polygon points="305.1,39 316.2,39 316.2,56.8 330,56.8 330,9.3 316.2,9.3 316.2,25.6 305.1,25.6 305.1,9.3 291.3,9.3 291.3,56.8 
			305.1,56.8 		"/>
		<path d="M362.1,9.3h-14.9l-14.1,47.5h14.4l1.5-6.1h11.3l1.5,6.1h14.4L362.1,9.3z M352.1,38.4l2.6-10.2l2.6,10.2H352.1z"/>
		<path d="M421.1,43.5c1.1-3,1.6-6.5,1.6-10.5c0-3.9-0.5-7.4-1.6-10.5c-1.1-3-2.6-5.6-4.5-7.7c-2-2.1-4.3-3.6-7.1-4.7
			c-2.8-1.1-5.8-1.6-9.2-1.6s-6.5,0.5-9.2,1.6c-2.8,1.1-5.1,2.6-7.1,4.7s-3.5,4.6-4.5,7.7c-1.1,3-1.6,6.5-1.6,10.5
			c0,3.9,0.5,7.4,1.6,10.5c1.1,3,2.6,5.6,4.5,7.7s4.3,3.6,7.1,4.7c2.8,1.1,5.8,1.6,9.2,1.6s6.5-0.5,9.2-1.6c2.8-1.1,5.1-2.6,7.1-4.7
			C418.5,49.1,420,46.6,421.1,43.5z M406.3,41.5c-1.5,1.8-3.6,2.7-6.3,2.7c-2.5,0-4.4-0.9-5.9-2.7c-1.5-1.8-2.2-4.7-2.2-8.7
			c0-3.9,0.7-6.9,2.2-8.7c1.5-1.9,3.5-2.8,6.1-2.8c2.6,0,4.6,0.9,6.1,2.8c1.5,1.9,2.2,4.8,2.2,8.7C408.5,36.8,407.8,39.7,406.3,41.5
			z"/>
		<path d="M118.9,67.8h-11c-1.1,1.3-2.1,2.9-3,4.6c-0.9,1.7-1.8,3.6-2.5,5.6c-0.7,2-1.3,4.2-1.7,6.5c-0.4,2.3-0.6,4.7-0.6,7.1
			c0,2.5,0.2,4.8,0.6,7.1s1,4.4,1.7,6.4s1.6,3.9,2.5,5.6c1,1.7,2,3.2,3,4.6h11c-1.9-3.3-3.4-7-4.6-11c-1.2-4-1.7-8.2-1.7-12.8
			c0-4.6,0.6-8.9,1.7-12.9C115.4,74.7,117,71.1,118.9,67.8z"/>
		<polygon points="148.4,84.1 137.3,84.1 137.3,67.8 123.5,67.8 123.5,115.3 137.3,115.3 137.3,97.5 148.4,97.5 148.4,115.3 
			162.2,115.3 162.2,67.8 148.4,67.8 		"/>
		<path d="M179.4,67.8l-14.1,47.5h14.4l1.5-6.1h11.3l1.5,6.1h14.4l-14.1-47.5H179.4z M184.3,96.9l2.6-10.2l2.6,10.2H184.3z"/>
		<path d="M246.8,93.9c1-2.4,1.5-5.3,1.5-8.8c0-3.4-0.5-6.2-1.5-8.5c-1-2.2-2.4-4-4.1-5.3s-3.8-2.2-6.1-2.7s-4.9-0.8-7.6-0.8h-17.5
			v47.5h13.8v-13h2.5l6.2,13h16.3l-8.3-15.8C244.2,98.1,245.8,96.3,246.8,93.9z M233,88.5c-1.1,0.6-2.8,0.8-5.2,0.8h-2.5v-8.7h2.5
			c1,0,2,0,2.8,0.1c0.8,0.1,1.6,0.3,2.2,0.6c0.6,0.3,1.1,0.7,1.4,1.3s0.5,1.4,0.5,2.4C234.6,86.8,234.1,87.9,233,88.5z"/>
		<path d="M288.4,93.9c1-2.4,1.5-5.3,1.5-8.8c0-3.4-0.5-6.2-1.5-8.5c-1-2.2-2.4-4-4.1-5.3s-3.8-2.2-6.1-2.7s-4.9-0.8-7.6-0.8h-17.5
			v47.5h13.8v-13h2.5l6.2,13H292l-8.3-15.8C285.8,98.1,287.4,96.3,288.4,93.9z M274.6,88.5c-1.1,0.6-2.8,0.8-5.2,0.8h-2.5v-8.7h2.5
			c1,0,2,0,2.8,0.1c0.8,0.1,1.6,0.3,2.2,0.6c0.6,0.3,1.1,0.7,1.4,1.3s0.5,1.4,0.5,2.4C276.2,86.8,275.7,87.9,274.6,88.5z"/>
		<polygon points="312.4,82 306.3,67.8 290.6,67.8 305.5,96.7 305.5,115.3 319.3,115.3 319.3,96.7 334.2,67.8 318.5,67.8 		"/>
		<path d="M353.8,78c-0.7-2-1.5-3.9-2.5-5.6s-1.9-3.2-3-4.6h-11c1.9,3.2,3.5,6.9,4.6,10.9s1.7,8.3,1.7,12.9c0,4.5-0.6,8.8-1.7,12.8
			c-1.2,4-2.7,7.7-4.6,11h11c1.1-1.3,2.1-2.9,3-4.6c1-1.7,1.8-3.6,2.5-5.6c0.7-2,1.3-4.2,1.7-6.4s0.6-4.7,0.6-7.1
			c0-2.5-0.2-4.8-0.6-7.1C355.1,82.2,354.5,80,353.8,78z"/>
		<polygon points="388.5,67.8 374.7,67.8 374.7,115.3 408.2,115.3 408.2,102.4 388.5,102.4 		"/>
		<rect x="412.7" y="67.8" width="13.8" height="47.5"/>
		<path d="M444.2,67.8l-14.1,47.5h14.4l1.5-6.1h11.3l1.5,6.1h14.4l-14.1-47.5H444.2z M449.1,96.9l2.6-10.2l2.6,10.2H449.1z"/>
		<path d="M518.1,81.1c-1.1-3-2.6-5.6-4.5-7.7c-2-2.1-4.3-3.6-7.1-4.7c-2.8-1.1-5.8-1.6-9.2-1.6s-6.5,0.5-9.2,1.6
			c-2.8,1.1-5.1,2.6-7.1,4.7c-2,2.1-3.5,4.6-4.5,7.7c-1.1,3-1.6,6.5-1.6,10.5s0.5,7.4,1.6,10.5c1.1,3,2.6,5.6,4.5,7.7
			s4.3,3.6,7.1,4.7c2.8,1.1,5.8,1.6,9.2,1.6s6.5-0.5,9.2-1.6c2.8-1.1,5.1-2.6,7.1-4.7c2-2.1,3.5-4.6,4.5-7.7c1.1-3,1.6-6.5,1.6-10.5
			S519.2,84.1,518.1,81.1z M503.3,100c-1.5,1.8-3.6,2.7-6.3,2.7c-2.5,0-4.4-0.9-5.9-2.7c-1.5-1.8-2.2-4.7-2.2-8.7
			c0-3.9,0.7-6.9,2.2-8.7c1.5-1.9,3.5-2.8,6.1-2.8c2.6,0,4.6,0.9,6.1,2.8c1.5,1.9,2.2,4.8,2.2,8.7C505.6,95.3,504.8,98.2,503.3,100z
			"/>
	</g>
</g>
</svg>
