<?xml version="1.0" encoding="utf-8"?>
<!-- Generator: Adobe Illustrator 23.0.0, SVG Export Plug-In . SVG Version: 6.00 Build 0)  -->
<svg version="1.1" id="圖層_1" xmlns="http://www.w3.org/2000/svg" xmlns:xlink="http://www.w3.org/1999/xlink" x="0px" y="0px"
	 viewBox="0 0 139.9 123.1" style="enable-background:new 0 0 139.9 123.1;" xml:space="preserve">
<style type="text/css">
	.st0{fill:#0D0D0D;}
</style>
<title>C-CUBE-CN-white</title>
<g>
	<path class="st0" d="M38.6,41.6C38.6,41.6,38.6,41.6,38.6,41.6c0.5-0.5,0.9-0.9,1.4-1.3c2.4-2.1,4.9-4,7.7-5.5
		c0.7-0.4,1.5-0.8,2.2-1.2v-8.5h20c11.8,0,21.5,9.6,21.5,21.5c0,11.8-9.6,21.5-21.5,21.5c-4.3,0-7.8,3.5-7.8,7.8
		c0,4.2,3.3,7.6,7.5,7.8h0.4c4.5,0,8.9-0.8,13.1-2.4c1.9-0.7,3.7-1.6,5.5-2.6c2.1-1.2,4.1-2.7,6-4.3c1.4-1.3,2.8-2.6,4-4.1
		c5.5-6.6,8.6-15,8.6-23.8c0-20.5-16.7-37.2-37.2-37.2H35.9v34.9C36.8,43.4,37.7,42.5,38.6,41.6z"/>
	<path class="st0" d="M102.2,79.2c-0.8,0.8-1.6,1.6-2.4,2.3c-2.4,2.1-4.9,3.9-7.6,5.5c-0.8,0.5-1.7,0.9-2.6,1.4v8.3H69.8
		c-11.4,0-20.7-9.3-20.7-20.7c0-11.4,9.3-20.7,20.7-20.7c4.7,0,8.6-3.9,8.6-8.6c0-4.6-3.6-8.4-8.2-8.6c-0.1,0-0.2,0-0.4,0
		c-5.3,0-10.6,1.1-15.4,3.3l-2,0.9c-0.2,0.1-0.5,0.3-0.8,0.4c-0.2,0.1-0.5,0.3-0.8,0.4c0,0,0,0,0,0c-1.6,0.9-3.2,2-4.7,3.2
		c-0.2,0.2-0.5,0.4-0.7,0.6c-0.2,0.2-0.5,0.4-0.7,0.6c-0.1,0.1-0.2,0.2-0.3,0.3c-0.1,0.1-0.1,0.1-0.2,0.2C44.2,48,44.1,48,44,48.1
		c-0.1,0.1-0.2,0.2-0.3,0.2c0,0-0.1,0.1-0.1,0.1c-0.2,0.2-0.3,0.3-0.5,0.5c-0.4,0.4-0.7,0.7-1.1,1.1c-0.2,0.2-0.3,0.4-0.5,0.5
		l-1.1,1.2C35,58.6,31.9,67,31.9,75.9c0,20.9,17,37.9,37.9,37.9h35.1V76.2c0,0.1-0.1,0.1-0.1,0.2C104,77.4,103.1,78.3,102.2,79.2z"
		/>
</g>
</svg>
