<?xml version="1.0" encoding="utf-8"?>
<!-- Generator: Adobe Illustrator 23.0.0, SVG Export Plug-In . SVG Version: 6.00 Build 0)  -->
<svg version="1.1" id="Capa_1" xmlns="http://www.w3.org/2000/svg" xmlns:xlink="http://www.w3.org/1999/xlink" x="0px" y="0px"
	 viewBox="0 0 60.7 60.7" style="enable-background:new 0 0 60.7 60.7;" xml:space="preserve">
<g>
	<path d="M51.1,6.9H9.6c-1.5,0-2.6,1.2-2.6,2.6v41.6c0,1.5,1.2,2.6,2.6,2.6H32V35.6h-6.1v-7.1H32v-5.2c0-6,3.7-9.3,9.1-9.3
		c2.6,0,4.8,0.2,5.5,0.3v6.3h-3.8c-2.9,0-3.5,1.4-3.5,3.5v4.5h6.9l-0.9,7.1h-6.1v18.1h11.9c1.5,0,2.6-1.2,2.6-2.6V9.5
		C53.7,8.1,52.5,6.9,51.1,6.9z"/>
</g>
</svg>
