<?xml version="1.0" encoding="UTF-8"?>
<svg id="_圖層_1" data-name="圖層 1" xmlns="http://www.w3.org/2000/svg" version="1.1" viewBox="0 0 522.6 123.1">
  <defs>
    <style>
      .cls-1 {
        fill: #000;
        stroke-width: 0px;
      }
    </style>
  </defs>
  <g>
    <path class="cls-1" d="M11.2,41.9h0c.5-.5.9-.9,1.4-1.3,2.4-2.1,5-4,7.8-5.6.8-.4,1.5-.8,2.3-1.2v-8.7h20.4c12.1,0,21.9,9.8,21.9,21.9s-9.8,21.9-21.9,21.9-8,3.6-8,8,3.3,7.8,7.6,8h.4c4.6,0,9.1-.8,13.3-2.4,1.9-.7,3.8-1.6,5.6-2.6,2.2-1.2,4.2-2.7,6.1-4.4,1.5-1.3,2.8-2.7,4-4.2,5.6-6.8,8.8-15.3,8.8-24.2,0-20.9-17-37.8-37.9-37.8H8.5v35.6c.8-1.2,1.7-2.1,2.7-3Z"/>
    <path class="cls-1" d="M76,80.2c-.8.8-1.6,1.6-2.5,2.4-2.4,2.1-5,4-7.7,5.6-.8.5-1.7,1-2.6,1.4v8.4h-20.2c-11.6,0-21.1-9.5-21.1-21.1s9.5-21.1,21.1-21.1,8.8-3.9,8.8-8.8-3.7-8.5-8.3-8.8h-.4c-5.4,0-10.8,1.1-15.7,3.3l-2,1c-.2,0-.5.3-.8.4-.2,0-.5.3-.8.4h0c-1.7,1-3.2,2-4.8,3.3-.2.2-.5.4-.8.6-.2.2-.5.4-.7.6s-.2.2-.3.3-.1,0-.2.2c-.1,0-.2,0-.2.2-.1,0-.2,0-.3.2h-.1c-.2.3-.3.4-.5.6-.4.4-.8.8-1.1,1.1-.2.2-.3.4-.5.5l-1.1,1.2c-5.7,7.1-8.8,15.8-8.8,24.8,0,21.3,17.3,38.6,38.6,38.6h35.7v-38.3c0,0,0,0-.2.2-.7,1-1.6,1.9-2.5,2.8Z"/>
  </g>
  <g>
    <polygon class="cls-1" points="144.4 56.8 129.4 32.6 143.8 9.3 127.7 9.3 121.3 19.5 115.1 9.3 98.9 9.3 113.3 32.6 98.4 56.8 114.5 56.8 121.3 45.7 128.2 56.8 144.4 56.8"/>
    <rect class="cls-1" x="148" y="9.3" width="13.8" height="47.5"/>
    <path class="cls-1" d="M179.4,9.3l-14.1,47.5h14.4l1.5-6.1h11.3l1.5,6.1h14.4l-14.1-47.5h-14.9ZM184.3,38.4l2.6-10.2,2.6,10.2h-5.2Z"/>
    <polygon class="cls-1" points="224.6 31.4 237.1 56.8 250.4 56.8 250.4 9.3 237.3 9.3 237.3 32.1 226 9.3 211.6 9.3 211.6 56.8 224.6 56.8 224.6 31.4"/>
    <rect class="cls-1" x="255" y="27.3" width="31.6" height="11.9"/>
    <polygon class="cls-1" points="305.1 39 316.2 39 316.2 56.8 330 56.8 330 9.3 316.2 9.3 316.2 25.6 305.1 25.6 305.1 9.3 291.3 9.3 291.3 56.8 305.1 56.8 305.1 39"/>
    <path class="cls-1" d="M362.1,9.3h-14.9l-14.1,47.5h14.4l1.5-6.1h11.3l1.5,6.1h14.4l-14.1-47.5ZM352.1,38.4l2.6-10.2,2.6,10.2h-5.2Z"/>
    <path class="cls-1" d="M421.1,43.5c1.1-3,1.6-6.5,1.6-10.5s-.5-7.4-1.6-10.5c-1.1-3-2.6-5.6-4.5-7.7-2-2.1-4.3-3.6-7.1-4.7-2.8-1.1-5.8-1.6-9.2-1.6s-6.5.5-9.2,1.6c-2.8,1.1-5.1,2.6-7.1,4.7s-3.5,4.6-4.5,7.7c-1.1,3-1.6,6.5-1.6,10.5s.5,7.4,1.6,10.5c1.1,3,2.6,5.6,4.5,7.7s4.3,3.6,7.1,4.7c2.8,1.1,5.8,1.6,9.2,1.6s6.5-.5,9.2-1.6c2.8-1.1,5.1-2.6,7.1-4.7,1.9-2.1,3.4-4.6,4.5-7.7ZM406.3,41.5c-1.5,1.8-3.6,2.7-6.3,2.7s-4.4-.9-5.9-2.7-2.2-4.7-2.2-8.7.7-6.9,2.2-8.7c1.5-1.9,3.5-2.8,6.1-2.8s4.6.9,6.1,2.8,2.2,4.8,2.2,8.7c0,4-.7,6.9-2.2,8.7Z"/>
    <path class="cls-1" d="M118.9,67.8h-11c-1.1,1.3-2.1,2.9-3,4.6s-1.8,3.6-2.5,5.6-1.3,4.2-1.7,6.5c-.4,2.3-.6,4.7-.6,7.1s.2,4.8.6,7.1,1,4.4,1.7,6.4,1.6,3.9,2.5,5.6c1,1.7,2,3.2,3,4.6h11c-1.9-3.3-3.4-7-4.6-11s-1.7-8.2-1.7-12.8.6-8.9,1.7-12.9c1.1-3.9,2.7-7.5,4.6-10.8Z"/>
    <polygon class="cls-1" points="148.4 84.1 137.3 84.1 137.3 67.8 123.5 67.8 123.5 115.3 137.3 115.3 137.3 97.5 148.4 97.5 148.4 115.3 162.2 115.3 162.2 67.8 148.4 67.8 148.4 84.1"/>
    <path class="cls-1" d="M179.4,67.8l-14.1,47.5h14.4l1.5-6.1h11.3l1.5,6.1h14.4l-14.1-47.5h-14.9ZM184.3,96.9l2.6-10.2,2.6,10.2h-5.2Z"/>
    <path class="cls-1" d="M246.8,93.9c1-2.4,1.5-5.3,1.5-8.8s-.5-6.2-1.5-8.5c-1-2.2-2.4-4-4.1-5.3s-3.8-2.2-6.1-2.7-4.9-.8-7.6-.8h-17.5v47.5h13.8v-13h2.5l6.2,13h16.3l-8.3-15.8c2.2-1.4,3.8-3.2,4.8-5.6ZM233,88.5c-1.1.6-2.8.8-5.2.8h-2.5v-8.7h2.5c1,0,2,0,2.8,0s1.6.3,2.2.6,1.1.7,1.4,1.3.5,1.4.5,2.4c0,1.8-.6,2.9-1.7,3.5Z"/>
    <path class="cls-1" d="M288.4,93.9c1-2.4,1.5-5.3,1.5-8.8s-.5-6.2-1.5-8.5c-1-2.2-2.4-4-4.1-5.3s-3.8-2.2-6.1-2.7-4.9-.8-7.6-.8h-17.5v47.5h13.8v-13h2.5l6.2,13h16.4l-8.3-15.8c2.1-1.4,3.7-3.2,4.7-5.6ZM274.6,88.5c-1.1.6-2.8.8-5.2.8h-2.5v-8.7h2.5c1,0,2,0,2.8,0s1.6.3,2.2.6c.6.3,1.1.7,1.4,1.3s.5,1.4.5,2.4c0,1.8-.6,2.9-1.7,3.5Z"/>
    <polygon class="cls-1" points="312.4 82 306.3 67.8 290.6 67.8 305.5 96.7 305.5 115.3 319.3 115.3 319.3 96.7 334.2 67.8 318.5 67.8 312.4 82"/>
    <path class="cls-1" d="M353.8,78c-.7-2-1.5-3.9-2.5-5.6s-1.9-3.2-3-4.6h-11c1.9,3.2,3.5,6.9,4.6,10.9s1.7,8.3,1.7,12.9-.6,8.8-1.7,12.8c-1.2,4-2.7,7.7-4.6,11h11c1.1-1.3,2.1-2.9,3-4.6,1-1.7,1.8-3.6,2.5-5.6s1.3-4.2,1.7-6.4.6-4.7.6-7.1-.2-4.8-.6-7.1c-.4-2.4-1-4.6-1.7-6.6Z"/>
    <polygon class="cls-1" points="388.5 67.8 374.7 67.8 374.7 115.3 408.2 115.3 408.2 102.4 388.5 102.4 388.5 67.8"/>
    <rect class="cls-1" x="412.7" y="67.8" width="13.8" height="47.5"/>
    <path class="cls-1" d="M444.2,67.8l-14.1,47.5h14.4l1.5-6.1h11.3l1.5,6.1h14.4l-14.1-47.5h-14.9ZM449.1,96.9l2.6-10.2,2.6,10.2h-5.2Z"/>
    <path class="cls-1" d="M518.1,81.1c-1.1-3-2.6-5.6-4.5-7.7-2-2.1-4.3-3.6-7.1-4.7-2.8-1.1-5.8-1.6-9.2-1.6s-6.5.5-9.2,1.6c-2.8,1.1-5.1,2.6-7.1,4.7s-3.5,4.6-4.5,7.7c-1.1,3-1.6,6.5-1.6,10.5s.5,7.4,1.6,10.5c1.1,3,2.6,5.6,4.5,7.7s4.3,3.6,7.1,4.7c2.8,1.1,5.8,1.6,9.2,1.6s6.5-.5,9.2-1.6c2.8-1.1,5.1-2.6,7.1-4.7s3.5-4.6,4.5-7.7c1.1-3,1.6-6.5,1.6-10.5s-.5-7.5-1.6-10.5ZM503.3,100c-1.5,1.8-3.6,2.7-6.3,2.7s-4.4-.9-5.9-2.7c-1.5-1.8-2.2-4.7-2.2-8.7s.7-6.9,2.2-8.7c1.5-1.9,3.5-2.8,6.1-2.8s4.6.9,6.1,2.8,2.2,4.8,2.2,8.7c0,4-.7,6.9-2.2,8.7Z"/>
  </g>
</svg>