<?xml version="1.0" encoding="utf-8"?>
<!-- Generator: Adobe Illustrator 27.5.0, SVG Export Plug-In . SVG Version: 6.00 Build 0)  -->
<svg version="1.1" id="圖層_1" xmlns="http://www.w3.org/2000/svg" xmlns:xlink="http://www.w3.org/1999/xlink" x="0px" y="0px"
	 viewBox="0 0 162.1 142.6" style="enable-background:new 0 0 162.1 142.6;" xml:space="preserve">
<style type="text/css">
	.st0{fill:#FFFFFF;}
</style>
<g>
	<g>
		<path class="st0" d="M64.4,36.7c0.3-0.3,0.5-0.5,0.8-0.6c1.2-1.1,2.6-2.1,4.1-3c0.4-0.3,0.8-0.5,1.2-0.6v-4.7h10.8
			c6.3,0,11.6,5.2,11.6,11.6s-5.2,11.5-11.6,11.5c-2.4,0-4.3,1.9-4.3,4.3c0,2.3,1.7,4.1,4,4.3h0.3c2.4,0,4.9-0.5,7-1.2
			c1-0.4,2-0.9,3-1.4c1.1-0.6,2.3-1.4,3.2-2.4c0.8-0.6,1.4-1.4,2.1-2.3c3-3.6,4.6-8.1,4.6-12.8c0-11-9-19.9-19.9-19.9H63.1v18.8
			C63.4,37.5,64,37,64.4,36.7z"/>
		<path class="st0" d="M81.2,75.5h18.9V55.3c0,0,0,0.1-0.1,0.1c-0.3,0.5-0.8,1-1.2,1.4c-0.4,0.4-0.9,0.9-1.2,1.2
			c-1.2,1.1-2.6,2.1-4.1,2.9c-0.5,0.3-0.9,0.5-1.4,0.8v4.5H81.2c-6.1,0-11.2-5-11.2-11.2c0-6.1,5-11.2,11.2-11.2
			c2.5,0,4.6-2.1,4.6-4.6s-1.9-4.5-4.4-4.6c0,0-0.1,0-0.3,0c-2.9,0-5.7,0.6-8.2,1.7l-1,0.5c-0.1,0-0.3,0-0.5,0.1
			c-0.1,0.1-0.3,0.1-0.4,0.3c-0.9,0.5-1.7,1.1-2.5,1.7c-0.1,0.1-0.3,0.3-0.4,0.4c-0.1,0.1-0.3,0.3-0.4,0.4l-0.1,0.1V40h-0.1
			l-0.1,0.1c-0.1,0.1-0.1,0.1-0.3,0.3c-0.3,0.3-0.4,0.4-0.6,0.6c-0.1,0.1-0.1,0.3-0.3,0.3l-0.8,0.7c-3,3.6-4.6,8.2-4.6,13
			C60.9,66.3,69.9,75.5,81.2,75.5z"/>
	</g>
	<g>
		<g>
			<g>
				<polygon class="st0" points="38.5,102.7 33,93.8 38.3,85.3 32.4,85.3 30,89 27.8,85.3 21.8,85.3 27.1,93.8 21.6,102.7 
					27.5,102.7 30,98.6 32.6,102.7 				"/>
				<rect x="39.8" y="85.3" class="st0" width="5.1" height="17.4"/>
				<path class="st0" d="M51.3,85.3l-5.2,17.4h5.3l0.5-2.2h4.1l0.5,2.2h5.3l-5.2-17.4H51.3z M53.1,95.9l1-3.7l1,3.7H53.1z"/>
				<polygon class="st0" points="67.9,93.3 72.5,102.7 77.3,102.7 77.3,85.3 72.5,85.3 72.5,93.6 68.4,85.3 63.1,85.3 63.1,102.7 
					67.9,102.7 				"/>
				<rect x="79" y="91.8" class="st0" width="11.6" height="4.4"/>
				<polygon class="st0" points="97.4,96.1 101.4,96.1 101.4,102.7 106.5,102.7 106.5,85.3 101.4,85.3 101.4,91.2 97.4,91.2 
					97.4,85.3 92.3,85.3 92.3,102.7 97.4,102.7 				"/>
				<path class="st0" d="M118.3,85.3h-5.5l-5.2,17.4h5.3l0.5-2.2h4.1l0.5,2.2h5.3L118.3,85.3z M114.6,95.9l1-3.7l1,3.7H114.6z"/>
				<path class="st0" d="M139.9,97.8c0.4-1.1,0.6-2.4,0.6-3.8c0-1.4-0.2-2.7-0.6-3.8c-0.4-1.1-1-2.1-1.6-2.8
					c-0.7-0.8-1.6-1.3-2.6-1.7s-2.1-0.6-3.4-0.6c-1.2,0-2.4,0.2-3.4,0.6c-1,0.4-1.9,1-2.6,1.7c-0.7,0.8-1.3,1.7-1.6,2.8
					c-0.4,1.1-0.6,2.4-0.6,3.8c0,1.4,0.2,2.7,0.6,3.8c0.4,1.1,1,2.1,1.6,2.8c0.7,0.8,1.6,1.3,2.6,1.7c1,0.4,2.1,0.6,3.4,0.6
					c1.2,0,2.4-0.2,3.4-0.6c1-0.4,1.9-1,2.6-1.7C138.9,99.8,139.5,98.9,139.9,97.8z M134.4,97c-0.5,0.7-1.3,1-2.3,1
					c-0.9,0-1.6-0.3-2.2-1s-0.8-1.7-0.8-3.2c0-1.4,0.3-2.5,0.8-3.2c0.5-0.7,1.3-1,2.2-1c1,0,1.7,0.3,2.2,1s0.8,1.8,0.8,3.2
					C135.3,95.3,135,96.4,134.4,97z"/>
			</g>
			<g>
				<path class="st0" d="M11.1,106.7H7c-0.4,0.5-0.8,1.1-1.1,1.7c-0.3,0.6-0.7,1.3-0.9,2.1c-0.3,0.7-0.5,1.5-0.6,2.4
					c-0.1,0.8-0.2,1.7-0.2,2.6c0,0.9,0.1,1.8,0.2,2.6c0.1,0.8,0.4,1.6,0.6,2.3c0.3,0.7,0.6,1.4,0.9,2.1c0.4,0.6,0.7,1.2,1.1,1.7h4
					c-0.7-1.2-1.2-2.6-1.7-4c-0.4-1.5-0.6-3-0.6-4.7c0-1.7,0.2-3.3,0.6-4.7C9.8,109.2,10.4,107.9,11.1,106.7z"/>
				<polygon class="st0" points="21.9,112.7 17.8,112.7 17.8,106.7 12.8,106.7 12.8,124.1 17.8,124.1 17.8,117.6 21.9,117.6 
					21.9,124.1 26.9,124.1 26.9,106.7 21.9,106.7 				"/>
				<path class="st0" d="M33.2,106.7l-5.2,17.4h5.3l0.5-2.2H38l0.5,2.2h5.3l-5.2-17.4H33.2z M35,117.3l1-3.7l1,3.7H35z"/>
				<path class="st0" d="M57.9,116.2c0.4-0.9,0.5-1.9,0.5-3.2c0-1.2-0.2-2.3-0.5-3.1c-0.4-0.8-0.9-1.5-1.5-1.9
					c-0.6-0.5-1.4-0.8-2.2-1c-0.8-0.2-1.8-0.3-2.8-0.3H45v17.4h5.1v-4.8H51l2.3,4.8h6l-3-5.8C57,117.8,57.6,117.1,57.9,116.2z
					 M52.9,114.3c-0.4,0.2-1,0.3-1.9,0.3h-0.9v-3.2H51c0.4,0,0.7,0,1,0s0.6,0.1,0.8,0.2c0.2,0.1,0.4,0.3,0.5,0.5
					c0.1,0.2,0.2,0.5,0.2,0.9C53.5,113.6,53.3,114,52.9,114.3z"/>
				<path class="st0" d="M73.2,116.2c0.4-0.9,0.5-1.9,0.5-3.2c0-1.2-0.2-2.3-0.5-3.1c-0.4-0.8-0.9-1.5-1.5-1.9
					c-0.6-0.5-1.4-0.8-2.2-1c-0.8-0.2-1.8-0.3-2.8-0.3h-6.4v17.4h5.1v-4.8h0.9l2.3,4.8h6l-3-5.8C72.2,117.8,72.8,117.1,73.2,116.2z
					 M68.1,114.3c-0.4,0.2-1,0.3-1.9,0.3h-0.9v-3.2h0.9c0.4,0,0.7,0,1,0s0.6,0.1,0.8,0.2c0.2,0.1,0.4,0.3,0.5,0.5
					c0.1,0.2,0.2,0.5,0.2,0.9C68.7,113.6,68.5,114,68.1,114.3z"/>
				<polygon class="st0" points="82,111.9 79.7,106.7 74,106.7 79.4,117.3 79.4,124.1 84.5,124.1 84.5,117.3 90,106.7 84.2,106.7 
									"/>
				<path class="st0" d="M97.1,110.4c-0.3-0.7-0.5-1.4-0.9-2.1s-0.7-1.2-1.1-1.7h-4c0.7,1.2,1.3,2.5,1.7,4c0.4,1.5,0.6,3,0.6,4.7
					c0,1.6-0.2,3.2-0.6,4.7c-0.4,1.5-1,2.8-1.7,4h4c0.4-0.5,0.8-1.1,1.1-1.7c0.4-0.6,0.7-1.3,0.9-2.1c0.3-0.7,0.5-1.5,0.6-2.3
					c0.1-0.8,0.2-1.7,0.2-2.6c0-0.9-0.1-1.8-0.2-2.6C97.6,112,97.4,111.2,97.1,110.4z"/>
				<polygon class="st0" points="109.8,106.7 104.8,106.7 104.8,124.1 117.1,124.1 117.1,119.4 109.8,119.4 				"/>
				<rect x="118.7" y="106.7" class="st0" width="5.1" height="17.4"/>
				<path class="st0" d="M130.3,106.7l-5.2,17.4h5.3l0.5-2.2h4.1l0.5,2.2h5.3l-5.2-17.4H130.3z M132,117.3l1-3.7l1,3.7H132z"/>
				<path class="st0" d="M157.3,111.6c-0.4-1.1-1-2.1-1.6-2.8c-0.7-0.8-1.6-1.3-2.6-1.7c-1-0.4-2.1-0.6-3.4-0.6
					c-1.2,0-2.4,0.2-3.4,0.6c-1,0.4-1.9,1-2.6,1.7c-0.7,0.8-1.3,1.7-1.6,2.8c-0.4,1.1-0.6,2.4-0.6,3.8s0.2,2.7,0.6,3.8
					c0.4,1.1,1,2.1,1.6,2.8c0.7,0.8,1.6,1.3,2.6,1.7s2.1,0.6,3.4,0.6c1.2,0,2.4-0.2,3.4-0.6c1-0.4,1.9-1,2.6-1.7
					c0.7-0.8,1.3-1.7,1.6-2.8c0.4-1.1,0.6-2.4,0.6-3.8S157.7,112.7,157.3,111.6z M151.9,118.5c-0.5,0.7-1.3,1-2.3,1
					c-0.9,0-1.6-0.3-2.2-1c-0.5-0.7-0.8-1.7-0.8-3.2c0-1.4,0.3-2.5,0.8-3.2c0.5-0.7,1.3-1,2.2-1s1.7,0.3,2.2,1s0.8,1.8,0.8,3.2
					C152.7,116.8,152.5,117.8,151.9,118.5z"/>
			</g>
		</g>
	</g>
</g>
</svg>
