<?xml version="1.0" encoding="utf-8"?>
<!-- Generator: Adobe Illustrator 23.0.0, SVG Export Plug-In . SVG Version: 6.00 Build 0)  -->
<svg version="1.1" id="圖層_1" xmlns="http://www.w3.org/2000/svg" xmlns:xlink="http://www.w3.org/1999/xlink" x="0px" y="0px"
	 viewBox="0 0 28.4 28.4" style="enable-background:new 0 0 28.4 28.4;" xml:space="preserve">
<style type="text/css">
	.st0{fill:#FFFFFF;}
</style>
<title>icon_scroll_top</title>
<g id="Path_463">
	<path class="st0" d="M4.8,19.6c-1.7,0-3-1.3-3-3c0-0.7,0.3-1.4,0.8-2l9.4-10.5c0.6-0.6,1.4-1,2.2-1l0,0c0.9,0,1.7,0.4,2.2,1
		l9.4,10.5c1.2,1.2,1.2,3.1,0,4.2s-3.1,1.2-4.2,0c-0.1-0.1-0.2-0.2-0.2-0.2l-7.2-8l-7.2,8C6.4,19.2,5.6,19.6,4.8,19.6z"/>
</g>
</svg>
